<svg id="visual" viewBox="0 0 960 540" width="960" height="540" xmlns="http://www.w3.org/2000/svg" xmlns:xlink="http://www.w3.org/1999/xlink" version="1.1"><rect x="0" y="0" width="960" height="540" fill="#e0e0c9"></rect><defs><linearGradient id="grad1_0" x1="43.8%" y1="100%" x2="100%" y2="0%"><stop offset="14.444444444444446%" stop-color="#e0e0c9" stop-opacity="1"></stop><stop offset="85.55555555555554%" stop-color="#e0e0c9" stop-opacity="1"></stop></linearGradient></defs><defs><linearGradient id="grad2_0" x1="0%" y1="100%" x2="56.3%" y2="0%"><stop offset="14.444444444444446%" stop-color="#e0e0c9" stop-opacity="1"></stop><stop offset="85.55555555555554%" stop-color="#e0e0c9" stop-opacity="1"></stop></linearGradient></defs><g transform="translate(960, 540)"><path d="M-459 0C-438.8 -20.6 -418.5 -41.3 -419.8 -66.5C-421 -91.7 -443.7 -121.5 -436.5 -141.8C-429.3 -162.2 -392.2 -173.2 -371.5 -189.3C-350.9 -205.4 -346.8 -226.7 -334.9 -243.3C-323.1 -260 -303.4 -272.2 -288.5 -288.5C-273.6 -304.8 -263.3 -325.3 -249.8 -343.8C-236.3 -362.4 -219.4 -379.1 -199.8 -392C-180.1 -405 -157.6 -414.2 -134.4 -413.7C-111.2 -413.2 -87.3 -403 -64.8 -408.9C-42.2 -414.8 -21.1 -436.9 0 -459L0 0Z" fill="#162234"></path></g><g transform="translate(0, 0)"><path d="M459 0C431.1 20.3 403.1 40.7 398 63C393 85.4 410.8 109.9 418.5 136C426.1 162.1 423.7 189.9 407.2 207.5C390.7 225.1 360.2 232.5 342.2 248.6C324.2 264.8 318.7 289.8 300.5 300.5C282.4 311.3 251.6 307.8 234.5 322.8C217.5 337.8 214.1 371.2 201.1 394.7C188.1 418.3 165.6 432 141.8 436.5C118.1 441 93.3 436.3 69.5 438.5C45.6 440.7 22.8 449.9 0 459L0 0Z" fill="#162234"></path></g></svg>