<svg id="visual" viewBox="0 0 900 450" width="900" height="450" xmlns="http://www.w3.org/2000/svg" xmlns:xlink="http://www.w3.org/1999/xlink" version="1.1"><path d="M0 254L15 258.5C30 263 60 272 90 275C120 278 150 275 180 268.3C210 261.7 240 251.3 270 251.2C300 251 330 261 360 263.7C390 266.3 420 261.7 450 260.7C480 259.7 510 262.3 540 266.7C570 271 600 277 630 274.5C660 272 690 261 720 260.8C750 260.7 780 271.3 810 272C840 272.7 870 263.3 885 258.7L900 254L900 451L885 451C870 451 840 451 810 451C780 451 750 451 720 451C690 451 660 451 630 451C600 451 570 451 540 451C510 451 480 451 450 451C420 451 390 451 360 451C330 451 300 451 270 451C240 451 210 451 180 451C150 451 120 451 90 451C60 451 30 451 15 451L0 451Z" fill="#e0e0c9"></path><path d="M0 260L15 260.2C30 260.3 60 260.7 90 263.5C120 266.3 150 271.7 180 276.5C210 281.3 240 285.7 270 282.8C300 280 330 270 360 269.5C390 269 420 278 450 284C480 290 510 293 540 294.3C570 295.7 600 295.3 630 290C660 284.7 690 274.3 720 275.2C750 276 780 288 810 292.3C840 296.7 870 293.3 885 291.7L900 290L900 451L885 451C870 451 840 451 810 451C780 451 750 451 720 451C690 451 660 451 630 451C600 451 570 451 540 451C510 451 480 451 450 451C420 451 390 451 360 451C330 451 300 451 270 451C240 451 210 451 180 451C150 451 120 451 90 451C60 451 30 451 15 451L0 451Z" fill="#b7c4b0"></path><path d="M0 304L15 306.3C30 308.7 60 313.3 90 313.2C120 313 150 308 180 303.3C210 298.7 240 294.3 270 295C300 295.7 330 301.3 360 305.8C390 310.3 420 313.7 450 316.2C480 318.7 510 320.3 540 321C570 321.7 600 321.3 630 318.2C660 315 690 309 720 309.5C750 310 780 317 810 313.8C840 310.7 870 297.3 885 290.7L900 284L900 451L885 451C870 451 840 451 810 451C780 451 750 451 720 451C690 451 660 451 630 451C600 451 570 451 540 451C510 451 480 451 450 451C420 451 390 451 360 451C330 451 300 451 270 451C240 451 210 451 180 451C150 451 120 451 90 451C60 451 30 451 15 451L0 451Z" fill="#91a99a"></path><path d="M0 328L15 325.7C30 323.3 60 318.7 90 315.3C120 312 150 310 180 312.2C210 314.3 240 320.7 270 325C300 329.3 330 331.7 360 329.7C390 327.7 420 321.3 450 322.7C480 324 510 333 540 338.7C570 344.3 600 346.7 630 342.2C660 337.7 690 326.3 720 326.3C750 326.3 780 337.7 810 342.7C840 347.7 870 346.3 885 345.7L900 345L900 451L885 451C870 451 840 451 810 451C780 451 750 451 720 451C690 451 660 451 630 451C600 451 570 451 540 451C510 451 480 451 450 451C420 451 390 451 360 451C330 451 300 451 270 451C240 451 210 451 180 451C150 451 120 451 90 451C60 451 30 451 15 451L0 451Z" fill="#6e8d86"></path><path d="M0 340L15 339.7C30 339.3 60 338.7 90 343.7C120 348.7 150 359.3 180 363.2C210 367 240 364 270 365C300 366 330 371 360 369.7C390 368.3 420 360.7 450 358.3C480 356 510 359 540 357.2C570 355.3 600 348.7 630 344.8C660 341 690 340 720 340.3C750 340.7 780 342.3 810 346.3C840 350.3 870 356.7 885 359.8L900 363L900 451L885 451C870 451 840 451 810 451C780 451 750 451 720 451C690 451 660 451 630 451C600 451 570 451 540 451C510 451 480 451 450 451C420 451 390 451 360 451C330 451 300 451 270 451C240 451 210 451 180 451C150 451 120 451 90 451C60 451 30 451 15 451L0 451Z" fill="#4f7174"></path><path d="M0 356L15 357.5C30 359 60 362 90 368.2C120 374.3 150 383.7 180 385.8C210 388 240 383 270 377.8C300 372.7 330 367.3 360 368C390 368.7 420 375.3 450 377.7C480 380 510 378 540 380.5C570 383 600 390 630 386.5C660 383 690 369 720 368.5C750 368 780 381 810 387C840 393 870 392 885 391.5L900 391L900 451L885 451C870 451 840 451 810 451C780 451 750 451 720 451C690 451 660 451 630 451C600 451 570 451 540 451C510 451 480 451 450 451C420 451 390 451 360 451C330 451 300 451 270 451C240 451 210 451 180 451C150 451 120 451 90 451C60 451 30 451 15 451L0 451Z" fill="#365660"></path><path d="M0 411L15 412C30 413 60 415 90 410.5C120 406 150 395 180 390.7C210 386.3 240 388.7 270 391.2C300 393.7 330 396.3 360 397.2C390 398 420 397 450 394.3C480 391.7 510 387.3 540 389.3C570 391.3 600 399.7 630 399.7C660 399.7 690 391.3 720 389.3C750 387.3 780 391.7 810 396.3C840 401 870 406 885 408.5L900 411L900 451L885 451C870 451 840 451 810 451C780 451 750 451 720 451C690 451 660 451 630 451C600 451 570 451 540 451C510 451 480 451 450 451C420 451 390 451 360 451C330 451 300 451 270 451C240 451 210 451 180 451C150 451 120 451 90 451C60 451 30 451 15 451L0 451Z" fill="#233b4b"></path><path d="M0 433L15 431C30 429 60 425 90 420.3C120 415.7 150 410.3 180 411.5C210 412.7 240 420.3 270 421.5C300 422.7 330 417.3 360 416.7C390 416 420 420 450 423.3C480 426.7 510 429.3 540 429.7C570 430 600 428 630 426.2C660 424.3 690 422.7 720 420.3C750 418 780 415 810 415.2C840 415.3 870 418.7 885 420.3L900 422L900 451L885 451C870 451 840 451 810 451C780 451 750 451 720 451C690 451 660 451 630 451C600 451 570 451 540 451C510 451 480 451 450 451C420 451 390 451 360 451C330 451 300 451 270 451C240 451 210 451 180 451C150 451 120 451 90 451C60 451 30 451 15 451L0 451Z" fill="#162234"></path></svg>