<svg id="visual" viewBox="0 0 900 600" width="900" height="600" xmlns="http://www.w3.org/2000/svg" xmlns:xlink="http://www.w3.org/1999/xlink" version="1.1"><path d="M0 79L21.5 82C43 85 86 91 128.8 98C171.7 105 214.3 113 257.2 113C300 113 343 105 385.8 106C428.7 107 471.3 117 514.2 108C557 99 600 71 642.8 57C685.7 43 728.3 43 771.2 57C814 71 857 99 878.5 113L900 127L900 0L878.5 0C857 0 814 0 771.2 0C728.3 0 685.7 0 642.8 0C600 0 557 0 514.2 0C471.3 0 428.7 0 385.8 0C343 0 300 0 257.2 0C214.3 0 171.7 0 128.8 0C86 0 43 0 21.5 0L0 0Z" fill="#e1a5a7"></path><path d="M0 121L21.5 133C43 145 86 169 128.8 170C171.7 171 214.3 149 257.2 151C300 153 343 179 385.8 184C428.7 189 471.3 173 514.2 158C557 143 600 129 642.8 117C685.7 105 728.3 95 771.2 97C814 99 857 113 878.5 120L900 127L900 125L878.5 111C857 97 814 69 771.2 55C728.3 41 685.7 41 642.8 55C600 69 557 97 514.2 106C471.3 115 428.7 105 385.8 104C343 103 300 111 257.2 111C214.3 111 171.7 103 128.8 96C86 89 43 83 21.5 80L0 77Z" fill="#e4afa6"></path><path d="M0 361L21.5 340C43 319 86 277 128.8 274C171.7 271 214.3 307 257.2 313C300 319 343 295 385.8 298C428.7 301 471.3 331 514.2 331C557 331 600 301 642.8 287C685.7 273 728.3 275 771.2 287C814 299 857 321 878.5 332L900 343L900 125L878.5 118C857 111 814 97 771.2 95C728.3 93 685.7 103 642.8 115C600 127 557 141 514.2 156C471.3 171 428.7 187 385.8 182C343 177 300 151 257.2 149C214.3 147 171.7 169 128.8 168C86 167 43 143 21.5 131L0 119Z" fill="#e4b9a7"></path><path d="M0 463L21.5 437C43 411 86 359 128.8 361C171.7 363 214.3 419 257.2 433C300 447 343 419 385.8 416C428.7 413 471.3 435 514.2 442C557 449 600 441 642.8 445C685.7 449 728.3 465 771.2 475C814 485 857 489 878.5 491L900 493L900 341L878.5 330C857 319 814 297 771.2 285C728.3 273 685.7 271 642.8 285C600 299 557 329 514.2 329C471.3 329 428.7 299 385.8 296C343 293 300 317 257.2 311C214.3 305 171.7 269 128.8 272C86 275 43 317 21.5 338L0 359Z" fill="#e3c3ac"></path><path d="M0 487L21.5 489C43 491 86 495 128.8 499C171.7 503 214.3 507 257.2 518C300 529 343 547 385.8 545C428.7 543 471.3 521 514.2 502C557 483 600 467 642.8 469C685.7 471 728.3 491 771.2 498C814 505 857 499 878.5 496L900 493L900 491L878.5 489C857 487 814 483 771.2 473C728.3 463 685.7 447 642.8 443C600 439 557 447 514.2 440C471.3 433 428.7 411 385.8 414C343 417 300 445 257.2 431C214.3 417 171.7 361 128.8 359C86 357 43 409 21.5 435L0 461Z" fill="#e2cdb3"></path><path d="M0 577L21.5 578C43 579 86 581 128.8 584C171.7 587 214.3 591 257.2 592C300 593 343 591 385.8 589C428.7 587 471.3 585 514.2 573C557 561 600 539 642.8 536C685.7 533 728.3 549 771.2 558C814 567 857 569 878.5 570L900 571L900 491L878.5 494C857 497 814 503 771.2 496C728.3 489 685.7 469 642.8 467C600 465 557 481 514.2 500C471.3 519 428.7 541 385.8 543C343 545 300 527 257.2 516C214.3 505 171.7 501 128.8 497C86 493 43 489 21.5 487L0 485Z" fill="#e0d7bd"></path><path d="M0 601L21.5 601C43 601 86 601 128.8 601C171.7 601 214.3 601 257.2 601C300 601 343 601 385.8 601C428.7 601 471.3 601 514.2 601C557 601 600 601 642.8 601C685.7 601 728.3 601 771.2 601C814 601 857 601 878.5 601L900 601L900 569L878.5 568C857 567 814 565 771.2 556C728.3 547 685.7 531 642.8 534C600 537 557 559 514.2 571C471.3 583 428.7 585 385.8 587C343 589 300 591 257.2 590C214.3 589 171.7 585 128.8 582C86 579 43 577 21.5 576L0 575Z" fill="#e0e0c9"></path></svg>