<svg id="visual" viewBox="0 0 960 540" width="960" height="540" xmlns="http://www.w3.org/2000/svg" xmlns:xlink="http://www.w3.org/1999/xlink" version="1.1"><g stroke-width="1" stroke-linejoin="bevel"><path d="M469.3 230.4L458.8 224.3L427.7 268.6Z" fill="#e1a5a7" stroke="#e1a5a7"></path><path d="M402.2 214.5L401.2 256.4L427.7 268.6Z" fill="#e4b1a6" stroke="#e4b1a6"></path><path d="M458.8 224.3L402.2 214.5L427.7 268.6Z" fill="#e3c3ac" stroke="#e3c3ac"></path><path d="M401.2 256.4L378.2 299.6L427.7 268.6Z" fill="#e4bda9" stroke="#e4bda9"></path><path d="M344.2 237.5L378.2 299.6L401.2 256.4Z" fill="#e0dbc2" stroke="#e0dbc2"></path><path d="M413.3 341.7L470.8 342.5L427.7 268.6Z" fill="#e4bda9" stroke="#e4bda9"></path><path d="M427.7 268.6L470.8 342.5L469.3 230.4Z" fill="#e1a5a7" stroke="#e1a5a7"></path><path d="M378.2 299.6L413.3 341.7L427.7 268.6Z" fill="#e3aba6" stroke="#e3aba6"></path><path d="M559.3 249.6L534.8 199.5L469.3 230.4Z" fill="#e1cfb5" stroke="#e1cfb5"></path><path d="M469.3 230.4L510.3 172.2L458.8 224.3Z" fill="#e3aba6" stroke="#e3aba6"></path><path d="M396.2 133.2L377.2 175.4L402.2 214.5Z" fill="#e4b7a7" stroke="#e4b7a7"></path><path d="M534.8 199.5L510.3 172.2L469.3 230.4Z" fill="#e4b1a6" stroke="#e4b1a6"></path><path d="M427.2 377.8L476.7 348.7L470.8 342.5Z" fill="#e1a5a7" stroke="#e1a5a7"></path><path d="M529.3 333.5L559.3 249.6L469.3 230.4Z" fill="#e1cfb5" stroke="#e1cfb5"></path><path d="M375.7 149.3L377.2 175.4L377.7 147.4Z" fill="#e0dbc2" stroke="#e0dbc2"></path><path d="M402.2 214.5L344.2 237.5L401.2 256.4Z" fill="#e3aba6" stroke="#e3aba6"></path><path d="M377.2 175.4L344.2 237.5L402.2 214.5Z" fill="#e1cfb5" stroke="#e1cfb5"></path><path d="M529.3 333.5L469.3 230.4L470.8 342.5Z" fill="#e3aba6" stroke="#e3aba6"></path><path d="M509.3 348.8L518.8 340.6L470.8 342.5Z" fill="#e2c9b0" stroke="#e2c9b0"></path><path d="M518.8 340.6L529.3 333.5L470.8 342.5Z" fill="#e4b7a7" stroke="#e4b7a7"></path><path d="M476.7 348.7L509.3 348.8L470.8 342.5Z" fill="#e4b7a7" stroke="#e4b7a7"></path><path d="M518.8 340.6L531.3 365.5L529.3 333.5Z" fill="#e0e0c9" stroke="#e0e0c9"></path><path d="M538.3 156.3L518.7 147.5L510.3 172.2Z" fill="#e2c9b0" stroke="#e2c9b0"></path><path d="M377.7 147.4L377.2 175.4L396.2 133.2Z" fill="#e3c3ac" stroke="#e3c3ac"></path><path d="M538.3 156.3L510.3 172.2L534.8 199.5Z" fill="#e1d5bb" stroke="#e1d5bb"></path><path d="M402.2 214.5L458.8 224.3L396.2 133.2Z" fill="#e2c9b0" stroke="#e2c9b0"></path><path d="M302.7 167.5L310.7 229.5L344.2 237.5Z" fill="#e3c3ac" stroke="#e3c3ac"></path><path d="M396.2 133.2L458.8 224.3L510.3 172.2Z" fill="#e4b1a6" stroke="#e4b1a6"></path><path d="M518.7 147.5L512.3 140.1L510.3 172.2Z" fill="#e1a5a7" stroke="#e1a5a7"></path><path d="M529.3 333.5L571.3 291.4L559.3 249.6Z" fill="#e1cfb5" stroke="#e1cfb5"></path><path d="M412.7 384.8L427.2 377.8L413.3 341.7Z" fill="#e0dbc2" stroke="#e0dbc2"></path><path d="M413.3 341.7L427.2 377.8L470.8 342.5Z" fill="#e3c3ac" stroke="#e3c3ac"></path><path d="M476.7 348.7L531.3 365.5L509.3 348.8Z" fill="#e4b7a7" stroke="#e4b7a7"></path><path d="M591.8 210.4L538.3 156.3L534.8 199.5Z" fill="#e1d5bb" stroke="#e1d5bb"></path><path d="M518.7 147.5L546.8 135.1L512.3 140.1Z" fill="#e0dbc2" stroke="#e0dbc2"></path><path d="M591.8 210.4L534.8 199.5L559.3 249.6Z" fill="#e0e0c9" stroke="#e0e0c9"></path><path d="M512.3 140.1L396.2 133.2L510.3 172.2Z" fill="#e3aba6" stroke="#e3aba6"></path><path d="M358.2 374.7L381.7 371.5L378.2 299.6Z" fill="#e0dbc2" stroke="#e0dbc2"></path><path d="M378.2 299.6L381.7 371.5L413.3 341.7Z" fill="#e3aba6" stroke="#e3aba6"></path><path d="M381.7 371.5L412.7 384.8L413.3 341.7Z" fill="#e3c3ac" stroke="#e3c3ac"></path><path d="M444.7 424.9L531.3 365.5L476.7 348.7Z" fill="#e1d5bb" stroke="#e1d5bb"></path><path d="M509.3 348.8L531.3 365.5L518.8 340.6Z" fill="#e4bda9" stroke="#e4bda9"></path><path d="M529.3 333.5L569.3 345.5L571.3 291.4Z" fill="#e0e0c9" stroke="#e0e0c9"></path><path d="M444.7 424.9L476.7 348.7L427.2 377.8Z" fill="#e2c9b0" stroke="#e2c9b0"></path><path d="M302.7 167.5L344.2 237.5L377.2 175.4Z" fill="#e4b1a6" stroke="#e4b1a6"></path><path d="M344.2 237.5L304.7 257.4L378.2 299.6Z" fill="#e1d5bb" stroke="#e1d5bb"></path><path d="M310.7 229.5L304.7 257.4L344.2 237.5Z" fill="#e1cfb5" stroke="#e1cfb5"></path><path d="M571.3 291.4L591.8 210.4L559.3 249.6Z" fill="#e3c3ac" stroke="#e3c3ac"></path><path d="M538.3 156.3L546.8 135.1L518.7 147.5Z" fill="#e4b1a6" stroke="#e4b1a6"></path><path d="M488.2 80.3L378.7 93.3L396.2 133.2Z" fill="#e4b7a7" stroke="#e4b7a7"></path><path d="M591.8 210.4L546.8 135.1L538.3 156.3Z" fill="#e4b7a7" stroke="#e4b7a7"></path><path d="M531.3 365.5L569.3 345.5L529.3 333.5Z" fill="#e2c9b0" stroke="#e2c9b0"></path><path d="M571.3 291.4L660.4 279.6L591.8 210.4Z" fill="#e4b7a7" stroke="#e4b7a7"></path><path d="M293.1 336.7L358.2 374.7L378.2 299.6Z" fill="#e1cfb5" stroke="#e1cfb5"></path><path d="M381.7 371.5L379.7 459.7L412.7 384.8Z" fill="#e3aba6" stroke="#e3aba6"></path><path d="M377.7 147.4L322.6 146.3L375.7 149.3Z" fill="#e2c9b0" stroke="#e2c9b0"></path><path d="M375.7 149.3L322.6 146.3L377.2 175.4Z" fill="#e1d5bb" stroke="#e1d5bb"></path><path d="M226.6 259.6L272.2 280.5L304.7 257.4Z" fill="#e4b1a6" stroke="#e4b1a6"></path><path d="M378.7 93.3L322.6 146.3L377.7 147.4Z" fill="#e4b1a6" stroke="#e4b1a6"></path><path d="M322.6 146.3L302.7 167.5L377.2 175.4Z" fill="#e0e0c9" stroke="#e0e0c9"></path><path d="M488.2 80.3L396.2 133.2L512.3 140.1Z" fill="#e3c3ac" stroke="#e3c3ac"></path><path d="M396.2 133.2L378.7 93.3L377.7 147.4Z" fill="#e1cfb5" stroke="#e1cfb5"></path><path d="M379.7 459.7L444.7 424.9L412.7 384.8Z" fill="#e1d5bb" stroke="#e1d5bb"></path><path d="M412.7 384.8L444.7 424.9L427.2 377.8Z" fill="#e2c9b0" stroke="#e2c9b0"></path><path d="M658.8 316.7L649.8 313.6L639.3 379.7Z" fill="#e1a5a7" stroke="#e1a5a7"></path><path d="M557.8 88.2L488.2 80.3L512.3 140.1Z" fill="#e3c3ac" stroke="#e3c3ac"></path><path d="M272.2 280.5L293.1 336.7L304.7 257.4Z" fill="#e2c9b0" stroke="#e2c9b0"></path><path d="M304.7 257.4L293.1 336.7L378.2 299.6Z" fill="#e1d5bb" stroke="#e1d5bb"></path><path d="M226.6 259.6L304.7 257.4L310.7 229.5Z" fill="#e4b7a7" stroke="#e4b7a7"></path><path d="M322.6 146.3L310.7 116.1L302.7 167.5Z" fill="#e0e0c9" stroke="#e0e0c9"></path><path d="M226.6 259.6L251.6 318.6L272.2 280.5Z" fill="#e2c9b0" stroke="#e2c9b0"></path><path d="M378.7 93.3L310.7 116.1L322.6 146.3Z" fill="#e4b1a6" stroke="#e4b1a6"></path><path d="M564.3 80.3L557.8 88.2L632.3 135.1Z" fill="#e4b7a7" stroke="#e4b7a7"></path><path d="M546.8 135.1L557.8 88.2L512.3 140.1Z" fill="#e4bda9" stroke="#e4bda9"></path><path d="M291.7 380.6L295.2 379.6L293.1 336.7Z" fill="#e1a5a7" stroke="#e1a5a7"></path><path d="M293.1 336.7L295.2 379.6L358.2 374.7Z" fill="#e0dbc2" stroke="#e0dbc2"></path><path d="M358.2 374.7L379.7 459.7L381.7 371.5Z" fill="#e2c9b0" stroke="#e2c9b0"></path><path d="M251.6 318.6L291.7 380.6L293.1 336.7Z" fill="#e4b1a6" stroke="#e4b1a6"></path><path d="M295.2 379.6L319.6 418.9L358.2 374.7Z" fill="#e4b1a6" stroke="#e4b1a6"></path><path d="M632.3 135.1L557.8 88.2L546.8 135.1Z" fill="#e0dbc2" stroke="#e0dbc2"></path><path d="M557.8 88.2L540.7 61.1L488.2 80.3Z" fill="#e3c3ac" stroke="#e3c3ac"></path><path d="M649.8 313.6L569.3 345.5L639.3 379.7Z" fill="#e0e0c9" stroke="#e0e0c9"></path><path d="M569.3 345.5L649.8 313.6L571.3 291.4Z" fill="#e3c3ac" stroke="#e3c3ac"></path><path d="M591.8 210.4L632.3 135.1L546.8 135.1Z" fill="#e3aba6" stroke="#e3aba6"></path><path d="M272.2 280.5L251.6 318.6L293.1 336.7Z" fill="#e1a5a7" stroke="#e1a5a7"></path><path d="M226.6 259.6L310.7 229.5L224.1 203.3Z" fill="#e2c9b0" stroke="#e2c9b0"></path><path d="M564.3 80.3L540.7 61.1L557.8 88.2Z" fill="#e1cfb5" stroke="#e1cfb5"></path><path d="M488.2 80.3L400.7 6.2L378.7 93.3Z" fill="#e4b1a6" stroke="#e4b1a6"></path><path d="M649.8 313.6L660.4 279.6L571.3 291.4Z" fill="#e1cfb5" stroke="#e1cfb5"></path><path d="M673.3 258.5L653.4 190.2L591.8 210.4Z" fill="#e4bda9" stroke="#e4bda9"></path><path d="M291.7 380.6L319.6 418.9L295.2 379.6Z" fill="#e4b7a7" stroke="#e4b7a7"></path><path d="M653.4 190.2L632.3 135.1L591.8 210.4Z" fill="#e4b1a6" stroke="#e4b1a6"></path><path d="M536.3 0L527.7 0L540.7 61.1Z" fill="#e4b7a7" stroke="#e4b7a7"></path><path d="M649.8 313.6L674.9 287.4L660.4 279.6Z" fill="#e4b1a6" stroke="#e4b1a6"></path><path d="M639.3 379.7L569.3 345.5L588.3 475.9Z" fill="#e1cfb5" stroke="#e1cfb5"></path><path d="M319.6 418.9L379.7 459.7L358.2 374.7Z" fill="#e4b7a7" stroke="#e4b7a7"></path><path d="M588.3 475.9L569.3 345.5L531.3 365.5Z" fill="#e4bda9" stroke="#e4bda9"></path><path d="M674.9 287.4L673.3 258.5L660.4 279.6Z" fill="#e0dbc2" stroke="#e0dbc2"></path><path d="M660.4 279.6L673.3 258.5L591.8 210.4Z" fill="#e3c3ac" stroke="#e3c3ac"></path><path d="M224.1 203.3L310.7 229.5L302.7 167.5Z" fill="#e1a5a7" stroke="#e1a5a7"></path><path d="M540.7 61.1L492.3 28.2L488.2 80.3Z" fill="#e4bda9" stroke="#e4bda9"></path><path d="M259.7 61.2L233.2 129.3L310.7 116.1Z" fill="#e1a5a7" stroke="#e1a5a7"></path><path d="M658.8 316.7L674.9 287.4L649.8 313.6Z" fill="#e4b7a7" stroke="#e4b7a7"></path><path d="M486.7 508.8L531.3 365.5L444.7 424.9Z" fill="#e0e0c9" stroke="#e0e0c9"></path><path d="M658.8 316.7L691.8 292.5L674.9 287.4Z" fill="#e4bda9" stroke="#e4bda9"></path><path d="M233.2 129.3L224.1 203.3L302.7 167.5Z" fill="#e4b1a6" stroke="#e4b1a6"></path><path d="M653.4 190.2L671.8 157.2L632.3 135.1Z" fill="#e1a5a7" stroke="#e1a5a7"></path><path d="M536.3 0L540.7 61.1L537.8 0Z" fill="#e4b1a6" stroke="#e4b1a6"></path><path d="M691.8 174.5L671.8 157.2L653.4 190.2Z" fill="#e4b7a7" stroke="#e4b7a7"></path><path d="M691.8 174.5L653.4 190.2L673.3 258.5Z" fill="#e3aba6" stroke="#e3aba6"></path><path d="M720.9 340.5L691.8 292.5L658.8 316.7Z" fill="#e2c9b0" stroke="#e2c9b0"></path><path d="M674.9 287.4L691.8 292.5L673.3 258.5Z" fill="#e3c3ac" stroke="#e3c3ac"></path><path d="M224.1 203.3L202.6 236.5L226.6 259.6Z" fill="#e1d5bb" stroke="#e1d5bb"></path><path d="M226.6 259.6L207.2 305.7L251.6 318.6Z" fill="#e1a5a7" stroke="#e1a5a7"></path><path d="M331.2 0L310.7 116.1L378.7 93.3Z" fill="#e1cfb5" stroke="#e1cfb5"></path><path d="M310.7 116.1L233.2 129.3L302.7 167.5Z" fill="#e4b7a7" stroke="#e4b7a7"></path><path d="M224.1 203.3L185.6 225.5L202.6 236.5Z" fill="#e1d5bb" stroke="#e1d5bb"></path><path d="M182.6 293.7L207.2 305.7L226.6 259.6Z" fill="#e2c9b0" stroke="#e2c9b0"></path><path d="M251.6 318.6L219.2 367.5L291.7 380.6Z" fill="#e1cfb5" stroke="#e1cfb5"></path><path d="M253.6 445.7L333.2 476.8L319.6 418.9Z" fill="#e0e0c9" stroke="#e0e0c9"></path><path d="M492.3 28.2L400.7 6.2L488.2 80.3Z" fill="#e4b7a7" stroke="#e4b7a7"></path><path d="M754.8 181.4L691.8 174.5L673.3 258.5Z" fill="#e4b1a6" stroke="#e4b1a6"></path><path d="M319.6 418.9L333.2 476.8L379.7 459.7Z" fill="#e4b7a7" stroke="#e4b7a7"></path><path d="M419.3 515.8L486.7 508.8L444.7 424.9Z" fill="#e3c3ac" stroke="#e3c3ac"></path><path d="M253.6 445.7L319.6 418.9L291.7 380.6Z" fill="#e1cfb5" stroke="#e1cfb5"></path><path d="M207.2 305.7L219.2 367.5L251.6 318.6Z" fill="#e2c9b0" stroke="#e2c9b0"></path><path d="M419.3 515.8L444.7 424.9L379.7 459.7Z" fill="#e1d5bb" stroke="#e1d5bb"></path><path d="M233.2 129.3L198.1 177.3L224.1 203.3Z" fill="#e0e0c9" stroke="#e0e0c9"></path><path d="M182.6 293.7L191.1 314.7L207.2 305.7Z" fill="#e0dbc2" stroke="#e0dbc2"></path><path d="M540.7 61.1L527.7 0L492.3 28.2Z" fill="#e1a5a7" stroke="#e1a5a7"></path><path d="M492.3 28.2L527.7 0L400.7 6.2Z" fill="#e1d5bb" stroke="#e1d5bb"></path><path d="M540.7 61.1L592.3 0L537.8 0Z" fill="#e3c3ac" stroke="#e3c3ac"></path><path d="M564.3 80.3L592.3 0L540.7 61.1Z" fill="#e1a5a7" stroke="#e1a5a7"></path><path d="M486.7 508.8L588.3 475.9L531.3 365.5Z" fill="#e4bda9" stroke="#e4bda9"></path><path d="M639.3 379.7L720.9 340.5L658.8 316.7Z" fill="#e4bda9" stroke="#e4bda9"></path><path d="M564.3 80.3L614.8 13.1L592.3 0Z" fill="#e4b7a7" stroke="#e4b7a7"></path><path d="M198.1 177.3L185.6 225.5L224.1 203.3Z" fill="#e0dbc2" stroke="#e0dbc2"></path><path d="M207.2 305.7L191.1 314.7L219.2 367.5Z" fill="#e2c9b0" stroke="#e2c9b0"></path><path d="M564.3 80.3L637.4 24.1L614.8 13.1Z" fill="#e4b1a6" stroke="#e4b1a6"></path><path d="M355.7 508.9L419.3 515.8L379.7 459.7Z" fill="#e1d5bb" stroke="#e1d5bb"></path><path d="M182.6 293.7L226.6 259.6L202.6 236.5Z" fill="#e4b1a6" stroke="#e4b1a6"></path><path d="M198.1 177.3L172.6 179.3L185.6 225.5Z" fill="#e4b7a7" stroke="#e4b7a7"></path><path d="M233.2 129.3L194.6 174.4L198.1 177.3Z" fill="#e4b7a7" stroke="#e4b7a7"></path><path d="M588.3 475.9L650.3 428.6L639.3 379.7Z" fill="#e0dbc2" stroke="#e0dbc2"></path><path d="M382.2 -14.9L355.2 0L400.7 6.2Z" fill="#e2c9b0" stroke="#e2c9b0"></path><path d="M400.7 6.2L355.2 0L378.7 93.3Z" fill="#e1a5a7" stroke="#e1a5a7"></path><path d="M316.6 0L259.7 61.2L310.7 116.1Z" fill="#e4b7a7" stroke="#e4b7a7"></path><path d="M175.6 110.1L163.6 159.2L194.6 174.4Z" fill="#e1d5bb" stroke="#e1d5bb"></path><path d="M486.7 508.8L587.8 482.7L588.3 475.9Z" fill="#e3aba6" stroke="#e3aba6"></path><path d="M588.3 475.9L681.9 488.7L650.3 428.6Z" fill="#e1a5a7" stroke="#e1a5a7"></path><path d="M185.6 225.5L182.6 293.7L202.6 236.5Z" fill="#e4b7a7" stroke="#e4b7a7"></path><path d="M341.2 517.9L355.7 508.9L333.2 476.8Z" fill="#e2c9b0" stroke="#e2c9b0"></path><path d="M333.2 476.8L355.7 508.9L379.7 459.7Z" fill="#e4b7a7" stroke="#e4b7a7"></path><path d="M361.2 -42.9L382.2 -14.9L527.7 0Z" fill="#e0dbc2" stroke="#e0dbc2"></path><path d="M527.7 0L382.2 -14.9L400.7 6.2Z" fill="#e0e0c9" stroke="#e0e0c9"></path><path d="M361.2 -42.9L527.7 0L657.9 -23.9Z" fill="#e1d5bb" stroke="#e1d5bb"></path><path d="M259.7 61.2L218.2 101.2L233.2 129.3Z" fill="#e4b1a6" stroke="#e4b1a6"></path><path d="M209.6 402.9L291.7 380.6L219.2 367.5Z" fill="#e2c9b0" stroke="#e2c9b0"></path><path d="M209.6 402.9L253.6 445.7L291.7 380.6Z" fill="#e0dbc2" stroke="#e0dbc2"></path><path d="M471.7 540L487.8 525.8L486.7 508.8Z" fill="#e3c3ac" stroke="#e3c3ac"></path><path d="M560.8 540L572.8 531.9L587.8 482.7Z" fill="#e4b1a6" stroke="#e4b1a6"></path><path d="M450.3 540L486.7 508.8L419.3 515.8Z" fill="#e1d5bb" stroke="#e1d5bb"></path><path d="M361.2 -42.9L331.2 0L355.2 0Z" fill="#e4b7a7" stroke="#e4b7a7"></path><path d="M355.2 0L331.2 0L378.7 93.3Z" fill="#e4b7a7" stroke="#e4b7a7"></path><path d="M191.1 314.7L187.1 356.5L219.2 367.5Z" fill="#e0dbc2" stroke="#e0dbc2"></path><path d="M146.1 318.5L187.1 356.5L191.1 314.7Z" fill="#e0dbc2" stroke="#e0dbc2"></path><path d="M187.1 356.5L209.6 402.9L219.2 367.5Z" fill="#e1a5a7" stroke="#e1a5a7"></path><path d="M361.2 -42.9L316.6 0L331.2 0Z" fill="#e3c3ac" stroke="#e3c3ac"></path><path d="M331.2 0L316.6 0L310.7 116.1Z" fill="#e3aba6" stroke="#e3aba6"></path><path d="M142.1 76.2L175.6 110.1L148.1 49.2Z" fill="#e4b7a7" stroke="#e4b7a7"></path><path d="M696.8 400.8L720.9 340.5L639.3 379.7Z" fill="#e4b1a6" stroke="#e4b1a6"></path><path d="M691.8 292.5L735.4 292.5L673.3 258.5Z" fill="#e4bda9" stroke="#e4bda9"></path><path d="M194.6 174.4L172.6 179.3L198.1 177.3Z" fill="#e1cfb5" stroke="#e1cfb5"></path><path d="M136.6 292.5L146.1 318.5L182.6 293.7Z" fill="#e4b1a6" stroke="#e4b1a6"></path><path d="M182.6 293.7L146.1 318.5L191.1 314.7Z" fill="#e3aba6" stroke="#e3aba6"></path><path d="M163.6 159.2L172.6 179.3L194.6 174.4Z" fill="#e0e0c9" stroke="#e0e0c9"></path><path d="M282.2 540L341.2 517.9L333.2 476.8Z" fill="#e1cfb5" stroke="#e1cfb5"></path><path d="M379.7 540L422.2 540L419.3 515.8Z" fill="#e4b1a6" stroke="#e4b1a6"></path><path d="M720.9 340.5L735.4 292.5L691.8 292.5Z" fill="#e0dbc2" stroke="#e0dbc2"></path><path d="M681.9 488.7L696.8 400.8L650.3 428.6Z" fill="#e3c3ac" stroke="#e3c3ac"></path><path d="M650.3 428.6L696.8 400.8L639.3 379.7Z" fill="#e4bda9" stroke="#e4bda9"></path><path d="M564.3 80.3L632.3 135.1L637.4 24.1Z" fill="#e1cfb5" stroke="#e1cfb5"></path><path d="M657.9 -23.9L527.7 0L536.3 0Z" fill="#e1cfb5" stroke="#e1cfb5"></path><path d="M422.2 540L450.3 540L419.3 515.8Z" fill="#e0e0c9" stroke="#e0e0c9"></path><path d="M450.3 540L471.7 540L486.7 508.8Z" fill="#e0e0c9" stroke="#e0e0c9"></path><path d="M560.8 540L587.8 482.7L486.7 508.8Z" fill="#e0e0c9" stroke="#e0e0c9"></path><path d="M637.4 24.1L632.3 135.1L701.8 54.3Z" fill="#e0e0c9" stroke="#e0e0c9"></path><path d="M379.7 540L419.3 515.8L355.7 508.9Z" fill="#e1a5a7" stroke="#e1a5a7"></path><path d="M701.8 54.3L632.3 135.1L671.8 157.2Z" fill="#e0dbc2" stroke="#e0dbc2"></path><path d="M614.8 13.1L657.9 -23.9L592.3 0Z" fill="#e0e0c9" stroke="#e0e0c9"></path><path d="M701.8 54.3L671.8 157.2L775.4 137.3Z" fill="#e1a5a7" stroke="#e1a5a7"></path><path d="M341.2 517.9L379.7 540L355.7 508.9Z" fill="#e1d5bb" stroke="#e1d5bb"></path><path d="M361.2 -42.9L289.7 0L316.6 0Z" fill="#e4b7a7" stroke="#e4b7a7"></path><path d="M316.6 0L289.7 0L259.7 61.2Z" fill="#e0dbc2" stroke="#e0dbc2"></path><path d="M175.6 110.1L194.6 174.4L233.2 129.3Z" fill="#e1a5a7" stroke="#e1a5a7"></path><path d="M136.6 292.5L182.6 293.7L185.6 225.5Z" fill="#e3aba6" stroke="#e3aba6"></path><path d="M175.6 110.1L233.2 129.3L218.2 101.2Z" fill="#e3aba6" stroke="#e3aba6"></path><path d="M560.8 540L486.7 508.8L487.8 525.8Z" fill="#e0dbc2" stroke="#e0dbc2"></path><path d="M644.8 522.9L681.9 488.7L588.3 475.9Z" fill="#e3aba6" stroke="#e3aba6"></path><path d="M657.9 -23.9L536.3 0L537.8 0Z" fill="#e2c9b0" stroke="#e2c9b0"></path><path d="M382.2 -14.9L361.2 -42.9L355.2 0Z" fill="#e4b1a6" stroke="#e4b1a6"></path><path d="M175.6 110.1L218.2 101.2L148.1 49.2Z" fill="#e4b1a6" stroke="#e4b1a6"></path><path d="M557.3 581.9L560.8 540L487.8 525.8Z" fill="#e3aba6" stroke="#e3aba6"></path><path d="M136.6 292.5L185.6 225.5L117.6 205.4Z" fill="#e3c3ac" stroke="#e3c3ac"></path><path d="M123.1 375.5L195.1 470.8L209.6 402.9Z" fill="#e4b7a7" stroke="#e4b7a7"></path><path d="M735.4 292.5L754.8 181.4L673.3 258.5Z" fill="#e4b7a7" stroke="#e4b7a7"></path><path d="M136.6 182.2L185.6 225.5L172.6 179.3Z" fill="#e2c9b0" stroke="#e2c9b0"></path><path d="M775.4 137.3L671.8 157.2L691.8 174.5Z" fill="#e2c9b0" stroke="#e2c9b0"></path><path d="M637.4 24.1L650.8 0L614.8 13.1Z" fill="#e4bda9" stroke="#e4bda9"></path><path d="M130.1 135.4L136.6 182.2L163.6 159.2Z" fill="#e2c9b0" stroke="#e2c9b0"></path><path d="M163.6 159.2L136.6 182.2L172.6 179.3Z" fill="#e0e0c9" stroke="#e0e0c9"></path><path d="M701.8 54.3L650.8 0L637.4 24.1Z" fill="#e2c9b0" stroke="#e2c9b0"></path><path d="M592.3 0L657.9 -23.9L537.8 0Z" fill="#e1a5a7" stroke="#e1a5a7"></path><path d="M797.4 299.5L775.4 274.5L735.4 292.5Z" fill="#e4b7a7" stroke="#e4b7a7"></path><path d="M735.4 292.5L775.4 274.5L754.8 181.4Z" fill="#e0dbc2" stroke="#e0dbc2"></path><path d="M791.4 349.7L735.4 292.5L720.9 340.5Z" fill="#e0e0c9" stroke="#e0e0c9"></path><path d="M557.3 581.9L625.4 530.8L572.8 531.9Z" fill="#e3aba6" stroke="#e3aba6"></path><path d="M572.8 531.9L625.4 530.8L587.8 482.7Z" fill="#e4b1a6" stroke="#e4b1a6"></path><path d="M696.8 400.8L770.4 365.5L720.9 340.5Z" fill="#e4b1a6" stroke="#e4b1a6"></path><path d="M644.8 522.9L588.3 475.9L587.8 482.7Z" fill="#e1a5a7" stroke="#e1a5a7"></path><path d="M253.6 445.7L282.2 540L333.2 476.8Z" fill="#e1d5bb" stroke="#e1d5bb"></path><path d="M341.2 517.9L282.2 540L379.7 540Z" fill="#e4b1a6" stroke="#e4b1a6"></path><path d="M232.6 517.8L282.2 540L253.6 445.7Z" fill="#e3aba6" stroke="#e3aba6"></path><path d="M195.1 470.8L253.6 445.7L209.6 402.9Z" fill="#e1a5a7" stroke="#e1a5a7"></path><path d="M625.4 530.8L644.8 522.9L587.8 482.7Z" fill="#e1d5bb" stroke="#e1d5bb"></path><path d="M130.1 135.4L117.6 205.4L136.6 182.2Z" fill="#e2c9b0" stroke="#e2c9b0"></path><path d="M136.6 182.2L117.6 205.4L185.6 225.5Z" fill="#e1cfb5" stroke="#e1cfb5"></path><path d="M122.1 350.6L187.1 356.5L146.1 318.5Z" fill="#e0dbc2" stroke="#e0dbc2"></path><path d="M123.1 375.5L209.6 402.9L187.1 356.5Z" fill="#e3c3ac" stroke="#e3c3ac"></path><path d="M790.4 429.7L770.4 365.5L696.8 400.8Z" fill="#e1d5bb" stroke="#e1d5bb"></path><path d="M116.1 110.1L130.1 135.4L175.6 110.1Z" fill="#e4b1a6" stroke="#e4b1a6"></path><path d="M175.6 110.1L130.1 135.4L163.6 159.2Z" fill="#e1a5a7" stroke="#e1a5a7"></path><path d="M100.1 366.8L122.1 350.6L84.6 308.5Z" fill="#e0e0c9" stroke="#e0e0c9"></path><path d="M84.6 308.5L122.1 350.6L146.1 318.5Z" fill="#e0e0c9" stroke="#e0e0c9"></path><path d="M195.1 470.8L232.6 517.8L253.6 445.7Z" fill="#e1cfb5" stroke="#e1cfb5"></path><path d="M754.8 181.4L775.4 137.3L691.8 174.5Z" fill="#e1a5a7" stroke="#e1a5a7"></path><path d="M819.9 207.3L775.4 137.3L754.8 181.4Z" fill="#e0e0c9" stroke="#e0e0c9"></path><path d="M701.8 54.3L657.9 -23.9L650.8 0Z" fill="#e3aba6" stroke="#e3aba6"></path><path d="M650.8 0L657.9 -23.9L614.8 13.1Z" fill="#e4bda9" stroke="#e4bda9"></path><path d="M787.9 0L657.9 -23.9L701.8 54.3Z" fill="#e0dbc2" stroke="#e0dbc2"></path><path d="M450.3 540L557.3 581.9L471.7 540Z" fill="#e0e0c9" stroke="#e0e0c9"></path><path d="M471.7 540L557.3 581.9L487.8 525.8Z" fill="#e3aba6" stroke="#e3aba6"></path><path d="M560.8 540L557.3 581.9L572.8 531.9Z" fill="#e4b7a7" stroke="#e4b7a7"></path><path d="M625.4 530.8L658.9 539.9L644.8 522.9Z" fill="#e1a5a7" stroke="#e1a5a7"></path><path d="M422.2 540L557.3 581.9L450.3 540Z" fill="#e4b7a7" stroke="#e4b7a7"></path><path d="M379.7 540L557.3 581.9L422.2 540Z" fill="#e3aba6" stroke="#e3aba6"></path><path d="M282.2 540L557.3 581.9L379.7 540Z" fill="#e1d5bb" stroke="#e1d5bb"></path><path d="M797.4 299.5L798.9 260.6L775.4 274.5Z" fill="#e1cfb5" stroke="#e1cfb5"></path><path d="M775.4 274.5L798.9 260.6L754.8 181.4Z" fill="#e0e0c9" stroke="#e0e0c9"></path><path d="M122.1 350.6L123.1 375.5L187.1 356.5Z" fill="#e4b1a6" stroke="#e4b1a6"></path><path d="M791.4 349.7L797.4 299.5L735.4 292.5Z" fill="#e0dbc2" stroke="#e0dbc2"></path><path d="M148.1 49.2L218.2 101.2L182.1 0Z" fill="#e2c9b0" stroke="#e2c9b0"></path><path d="M218.2 101.2L259.7 61.2L182.1 0Z" fill="#e1d5bb" stroke="#e1d5bb"></path><path d="M770.4 365.5L791.4 349.7L720.9 340.5Z" fill="#e4b1a6" stroke="#e4b1a6"></path><path d="M809.5 368.6L791.4 349.7L770.4 365.5Z" fill="#e3c3ac" stroke="#e3c3ac"></path><path d="M644.8 522.9L664.8 540L681.9 488.7Z" fill="#e1a5a7" stroke="#e1a5a7"></path><path d="M790.4 429.7L809.5 368.6L770.4 365.5Z" fill="#e4b7a7" stroke="#e4b7a7"></path><path d="M557.3 581.9L658.9 539.9L625.4 530.8Z" fill="#e1d5bb" stroke="#e1d5bb"></path><path d="M557.3 581.9L659.3 540L658.9 539.9Z" fill="#e4bda9" stroke="#e4bda9"></path><path d="M658.9 539.9L664.8 540L644.8 522.9Z" fill="#e4b1a6" stroke="#e4b1a6"></path><path d="M123.1 375.5L179.1 486.9L195.1 470.8Z" fill="#e3c3ac" stroke="#e3c3ac"></path><path d="M195.1 470.8L179.1 486.9L232.6 517.8Z" fill="#e3aba6" stroke="#e3aba6"></path><path d="M557.3 581.9L664.8 540L659.3 540Z" fill="#e1a5a7" stroke="#e1a5a7"></path><path d="M659.3 540L664.8 540L658.9 539.9Z" fill="#e0dbc2" stroke="#e0dbc2"></path><path d="M232.6 517.8L237.2 541.9L282.2 540Z" fill="#e4bda9" stroke="#e4bda9"></path><path d="M282.2 540L237.2 541.9L557.3 581.9Z" fill="#e0e0c9" stroke="#e0e0c9"></path><path d="M231.6 540L237.2 541.9L232.6 517.8Z" fill="#e4b7a7" stroke="#e4b7a7"></path><path d="M153.1 540L231.6 540L232.6 517.8Z" fill="#e0dbc2" stroke="#e0dbc2"></path><path d="M142.1 76.2L116.1 110.1L175.6 110.1Z" fill="#e1d5bb" stroke="#e1d5bb"></path><path d="M40.5 203.5L65.5 223.4L117.6 205.4Z" fill="#e1cfb5" stroke="#e1cfb5"></path><path d="M182.1 0L259.7 61.2L289.7 0Z" fill="#e2c9b0" stroke="#e2c9b0"></path><path d="M142.1 76.2L73.6 0L116.1 110.1Z" fill="#e4bda9" stroke="#e4bda9"></path><path d="M792.4 109.4L770.9 76.2L775.4 137.3Z" fill="#e4bda9" stroke="#e4bda9"></path><path d="M775.4 137.3L770.9 76.2L701.8 54.3Z" fill="#e1a5a7" stroke="#e1a5a7"></path><path d="M164.6 -13.9L182.1 0L289.7 0Z" fill="#e2c9b0" stroke="#e2c9b0"></path><path d="M84.6 308.5L146.1 318.5L136.6 292.5Z" fill="#e0dbc2" stroke="#e0dbc2"></path><path d="M122.1 350.6L100.1 366.8L123.1 375.5Z" fill="#e1cfb5" stroke="#e1cfb5"></path><path d="M118.6 540L153.1 540L179.1 486.9Z" fill="#e1cfb5" stroke="#e1cfb5"></path><path d="M84.6 308.5L136.6 292.5L65.5 223.4Z" fill="#e3c3ac" stroke="#e3c3ac"></path><path d="M65.5 223.4L136.6 292.5L117.6 205.4Z" fill="#e4b1a6" stroke="#e4b1a6"></path><path d="M878.9 153.4L792.4 109.4L775.4 137.3Z" fill="#e3aba6" stroke="#e3aba6"></path><path d="M826.4 272.6L819.9 207.3L798.9 260.6Z" fill="#e1a5a7" stroke="#e1a5a7"></path><path d="M798.9 260.6L819.9 207.3L754.8 181.4Z" fill="#e0dbc2" stroke="#e0dbc2"></path><path d="M826.4 272.6L798.9 260.6L797.4 299.5Z" fill="#e4b7a7" stroke="#e4b7a7"></path><path d="M791.4 349.7L822.9 294.5L797.4 299.5Z" fill="#e1cfb5" stroke="#e1cfb5"></path><path d="M822.9 294.5L826.4 272.6L797.4 299.5Z" fill="#e0dbc2" stroke="#e0dbc2"></path><path d="M791.4 349.7L809.5 368.6L822.9 294.5Z" fill="#e4bda9" stroke="#e4bda9"></path><path d="M790.4 429.7L696.8 400.8L766.4 495.9Z" fill="#e4b7a7" stroke="#e4b7a7"></path><path d="M766.4 495.9L696.8 400.8L681.9 488.7Z" fill="#e1a5a7" stroke="#e1a5a7"></path><path d="M148.1 49.2L73.6 0L142.1 76.2Z" fill="#e2c9b0" stroke="#e2c9b0"></path><path d="M182.1 0L158.1 0L148.1 49.2Z" fill="#e2c9b0" stroke="#e2c9b0"></path><path d="M164.6 -13.9L158.1 0L182.1 0Z" fill="#e1d5bb" stroke="#e1d5bb"></path><path d="M878.9 153.4L797.4 84.3L792.4 109.4Z" fill="#e4b1a6" stroke="#e4b1a6"></path><path d="M792.4 109.4L797.4 84.3L770.9 76.2Z" fill="#e0e0c9" stroke="#e0e0c9"></path><path d="M770.9 76.2L793.9 46.1L701.8 54.3Z" fill="#e4bda9" stroke="#e4bda9"></path><path d="M40.5 203.5L130.1 135.4L116.1 110.1Z" fill="#e2c9b0" stroke="#e2c9b0"></path><path d="M40.5 203.5L117.6 205.4L130.1 135.4Z" fill="#e0dbc2" stroke="#e0dbc2"></path><path d="M361.2 -42.9L164.6 -13.9L289.7 0Z" fill="#e3c3ac" stroke="#e3c3ac"></path><path d="M164.6 -13.9L146.5 0L158.1 0Z" fill="#e1cfb5" stroke="#e1cfb5"></path><path d="M158.1 0L146.5 0L148.1 49.2Z" fill="#e1cfb5" stroke="#e1cfb5"></path><path d="M730.9 540L766.4 495.9L681.9 488.7Z" fill="#e1a5a7" stroke="#e1a5a7"></path><path d="M845.9 50.2L793.9 46.1L797.4 84.3Z" fill="#e1a5a7" stroke="#e1a5a7"></path><path d="M797.4 84.3L793.9 46.1L770.9 76.2Z" fill="#e0e0c9" stroke="#e0e0c9"></path><path d="M790.4 429.7L830.5 376.5L809.5 368.6Z" fill="#e4bda9" stroke="#e4bda9"></path><path d="M809.5 368.6L830.5 376.5L822.9 294.5Z" fill="#e0e0c9" stroke="#e0e0c9"></path><path d="M822.9 294.5L863.4 270.4L826.4 272.6Z" fill="#e1cfb5" stroke="#e1cfb5"></path><path d="M847.9 408.8L830.5 376.5L790.4 429.7Z" fill="#e3aba6" stroke="#e3aba6"></path><path d="M557.3 581.9L730.9 540L664.8 540Z" fill="#e3c3ac" stroke="#e3c3ac"></path><path d="M664.8 540L730.9 540L681.9 488.7Z" fill="#e4b7a7" stroke="#e4b7a7"></path><path d="M164.6 -13.9L126.1 1.1L146.5 0Z" fill="#e0e0c9" stroke="#e0e0c9"></path><path d="M146.5 0L126.1 1.1L148.1 49.2Z" fill="#e2c9b0" stroke="#e2c9b0"></path><path d="M24.1 108.4L40.5 203.5L116.1 110.1Z" fill="#e4bda9" stroke="#e4bda9"></path><path d="M65.5 223.4L17.1 253.6L84.6 308.5Z" fill="#e1a5a7" stroke="#e1a5a7"></path><path d="M84.6 308.5L53.5 403.7L100.1 366.8Z" fill="#e4bda9" stroke="#e4bda9"></path><path d="M911.5 284.4L863.4 270.4L917.5 339.7Z" fill="#e1d5bb" stroke="#e1d5bb"></path><path d="M826.4 272.6L863.4 270.4L819.9 207.3Z" fill="#e1cfb5" stroke="#e1cfb5"></path><path d="M819.9 207.3L878.9 153.4L775.4 137.3Z" fill="#e0e0c9" stroke="#e0e0c9"></path><path d="M58.6 498.8L179.1 486.9L123.1 375.5Z" fill="#e4b1a6" stroke="#e4b1a6"></path><path d="M179.1 486.9L153.1 540L232.6 517.8Z" fill="#e4bda9" stroke="#e4bda9"></path><path d="M231.6 540L153.1 540L237.2 541.9Z" fill="#e1a5a7" stroke="#e1a5a7"></path><path d="M237.2 541.9L23.1 549.9L557.3 581.9Z" fill="#e0e0c9" stroke="#e0e0c9"></path><path d="M53.5 403.7L123.1 375.5L100.1 366.8Z" fill="#e2c9b0" stroke="#e2c9b0"></path><path d="M788.4 0L787.9 0L793.9 46.1Z" fill="#e4b7a7" stroke="#e4b7a7"></path><path d="M793.9 46.1L787.9 0L701.8 54.3Z" fill="#e3c3ac" stroke="#e3c3ac"></path><path d="M816.4 0L788.4 0L793.9 46.1Z" fill="#e4bda9" stroke="#e4bda9"></path><path d="M787.9 0L788.4 0L657.9 -23.9Z" fill="#e3c3ac" stroke="#e3c3ac"></path><path d="M0 237.5L28.1 221.5L0 199.3Z" fill="#e4bda9" stroke="#e4bda9"></path><path d="M40.5 203.5L28.1 221.5L65.5 223.4Z" fill="#e3c3ac" stroke="#e3c3ac"></path><path d="M0 378.5L53.5 403.7L84.6 308.5Z" fill="#e3c3ac" stroke="#e3c3ac"></path><path d="M771.4 540L788.4 510.8L766.4 495.9Z" fill="#e1d5bb" stroke="#e1d5bb"></path><path d="M766.4 495.9L788.4 510.8L790.4 429.7Z" fill="#e1cfb5" stroke="#e1cfb5"></path><path d="M863.4 270.4L873.9 199.5L819.9 207.3Z" fill="#e0e0c9" stroke="#e0e0c9"></path><path d="M851.9 449.7L847.9 408.8L790.4 429.7Z" fill="#e4b1a6" stroke="#e4b1a6"></path><path d="M917.5 339.7L863.4 270.4L822.9 294.5Z" fill="#e1cfb5" stroke="#e1cfb5"></path><path d="M863.4 270.4L888.9 201.3L873.9 199.5Z" fill="#e1cfb5" stroke="#e1cfb5"></path><path d="M730.9 540L771.4 540L766.4 495.9Z" fill="#e3aba6" stroke="#e3aba6"></path><path d="M557.3 581.9L771.4 540L730.9 540Z" fill="#e3c3ac" stroke="#e3c3ac"></path><path d="M28.1 221.5L17.1 253.6L65.5 223.4Z" fill="#e1a5a7" stroke="#e1a5a7"></path><path d="M107.1 540L118.6 540L58.6 498.8Z" fill="#e0e0c9" stroke="#e0e0c9"></path><path d="M153.1 540L23.1 549.9L237.2 541.9Z" fill="#e2c9b0" stroke="#e2c9b0"></path><path d="M873.9 199.5L878.9 153.4L819.9 207.3Z" fill="#e4b7a7" stroke="#e4b7a7"></path><path d="M911.5 284.4L888.9 201.3L863.4 270.4Z" fill="#e3aba6" stroke="#e3aba6"></path><path d="M873.9 199.5L888.9 201.3L878.9 153.4Z" fill="#e4b1a6" stroke="#e4b1a6"></path><path d="M859.5 51.2L845.9 50.2L797.4 84.3Z" fill="#e4b7a7" stroke="#e4b7a7"></path><path d="M845.9 50.2L816.4 0L793.9 46.1Z" fill="#e3aba6" stroke="#e3aba6"></path><path d="M788.4 0L816.4 0L657.9 -23.9Z" fill="#e1a5a7" stroke="#e1a5a7"></path><path d="M788.4 510.8L851.9 449.7L790.4 429.7Z" fill="#e3c3ac" stroke="#e3c3ac"></path><path d="M917.5 339.7L822.9 294.5L830.5 376.5Z" fill="#e3c3ac" stroke="#e3c3ac"></path><path d="M809.4 524.9L851.9 449.7L788.4 510.8Z" fill="#e1a5a7" stroke="#e1a5a7"></path><path d="M58.6 498.8L118.6 540L179.1 486.9Z" fill="#e2c9b0" stroke="#e2c9b0"></path><path d="M118.6 540L23.1 549.9L153.1 540Z" fill="#e0e0c9" stroke="#e0e0c9"></path><path d="M557.3 581.9L793.9 540L771.4 540Z" fill="#e1cfb5" stroke="#e1cfb5"></path><path d="M771.4 540L793.9 540L788.4 510.8Z" fill="#e4b1a6" stroke="#e4b1a6"></path><path d="M73.6 0L24.1 108.4L116.1 110.1Z" fill="#e4b1a6" stroke="#e4b1a6"></path><path d="M28.1 221.5L0 237.5L17.1 253.6Z" fill="#e4b7a7" stroke="#e4b7a7"></path><path d="M0 199.3L28.1 221.5L40.5 203.5Z" fill="#e4b7a7" stroke="#e4b7a7"></path><path d="M17.1 253.6L0 287.6L84.6 308.5Z" fill="#e1cfb5" stroke="#e1cfb5"></path><path d="M0 237.5L0 287.6L17.1 253.6Z" fill="#e0e0c9" stroke="#e0e0c9"></path><path d="M53.5 403.7L58.6 498.8L123.1 375.5Z" fill="#e0dbc2" stroke="#e0dbc2"></path><path d="M793.9 540L809.4 524.9L788.4 510.8Z" fill="#e4bda9" stroke="#e4bda9"></path><path d="M126.1 1.1L73.6 0L148.1 49.2Z" fill="#e1d5bb" stroke="#e1d5bb"></path><path d="M164.6 -13.9L73.6 0L126.1 1.1Z" fill="#e4b1a6" stroke="#e4b1a6"></path><path d="M0 161.2L0 199.3L40.5 203.5Z" fill="#e1a5a7" stroke="#e1a5a7"></path><path d="M878.9 153.4L859.5 51.2L797.4 84.3Z" fill="#e4bda9" stroke="#e4bda9"></path><path d="M845.9 50.2L851.9 0L816.4 0Z" fill="#e0dbc2" stroke="#e0dbc2"></path><path d="M887.4 60.1L859.5 51.2L878.9 153.4Z" fill="#e2c9b0" stroke="#e2c9b0"></path><path d="M557.3 581.9L803.4 540L793.9 540Z" fill="#e3c3ac" stroke="#e3c3ac"></path><path d="M793.9 540L803.4 540L809.4 524.9Z" fill="#e0e0c9" stroke="#e0e0c9"></path><path d="M809.4 524.9L865.9 491.8L851.9 449.7Z" fill="#e4b1a6" stroke="#e4b1a6"></path><path d="M0 145.4L0 161.2L40.5 203.5Z" fill="#e4b1a6" stroke="#e4b1a6"></path><path d="M0 378.5L19.5 411.9L53.5 403.7Z" fill="#e4bda9" stroke="#e4bda9"></path><path d="M24.1 108.4L0 145.4L40.5 203.5Z" fill="#e3c3ac" stroke="#e3c3ac"></path><path d="M10.5 98.3L0 145.4L24.1 108.4Z" fill="#e1cfb5" stroke="#e1cfb5"></path><path d="M917.5 339.7L830.5 376.5L847.9 408.8Z" fill="#e2c9b0" stroke="#e2c9b0"></path><path d="M888.9 201.3L908.5 140.1L878.9 153.4Z" fill="#e4b7a7" stroke="#e4b7a7"></path><path d="M19.5 411.9L58.6 498.8L53.5 403.7Z" fill="#e4b7a7" stroke="#e4b7a7"></path><path d="M803.4 540L813.5 540L809.4 524.9Z" fill="#e4bda9" stroke="#e4bda9"></path><path d="M557.3 581.9L813.5 540L803.4 540Z" fill="#e3aba6" stroke="#e3aba6"></path><path d="M73.6 0L10.5 98.3L24.1 108.4Z" fill="#e4b1a6" stroke="#e4b1a6"></path><path d="M0 287.6L0 378.5L84.6 308.5Z" fill="#e3c3ac" stroke="#e3c3ac"></path><path d="M19.5 411.9L0 430.8L58.6 498.8Z" fill="#e1a5a7" stroke="#e1a5a7"></path><path d="M950.9 171.5L908.5 140.1L888.9 201.3Z" fill="#e3c3ac" stroke="#e3c3ac"></path><path d="M879.4 15.2L851.9 0L859.5 51.2Z" fill="#e1d5bb" stroke="#e1d5bb"></path><path d="M859.5 51.2L851.9 0L845.9 50.2Z" fill="#e0dbc2" stroke="#e0dbc2"></path><path d="M816.4 0L851.9 0L657.9 -23.9Z" fill="#e1a5a7" stroke="#e1a5a7"></path><path d="M0 378.5L0 402.7L19.5 411.9Z" fill="#e0dbc2" stroke="#e0dbc2"></path><path d="M910.9 431.9L917.5 339.7L847.9 408.8Z" fill="#e1a5a7" stroke="#e1a5a7"></path><path d="M950.9 171.5L922.5 101.3L908.5 140.1Z" fill="#e1a5a7" stroke="#e1a5a7"></path><path d="M910.9 431.9L847.9 408.8L851.9 449.7Z" fill="#e0dbc2" stroke="#e0dbc2"></path><path d="M922.5 101.3L887.4 60.1L878.9 153.4Z" fill="#e2c9b0" stroke="#e2c9b0"></path><path d="M813.5 540L865.9 491.8L809.4 524.9Z" fill="#e0dbc2" stroke="#e0dbc2"></path><path d="M23.1 549.9L56.5 532.8L0 521.9Z" fill="#e3c3ac" stroke="#e3c3ac"></path><path d="M58.6 498.8L56.5 532.8L107.1 540Z" fill="#e4bda9" stroke="#e4bda9"></path><path d="M0 402.7L0 430.8L19.5 411.9Z" fill="#e0e0c9" stroke="#e0e0c9"></path><path d="M897.5 0L879.4 15.2L887.4 60.1Z" fill="#e1a5a7" stroke="#e1a5a7"></path><path d="M887.4 60.1L879.4 15.2L859.5 51.2Z" fill="#e0dbc2" stroke="#e0dbc2"></path><path d="M0 287.6L-41.5 364.6L0 378.5Z" fill="#e3c3ac" stroke="#e3c3ac"></path><path d="M0 378.5L-41.5 364.6L0 402.7Z" fill="#e4bda9" stroke="#e4bda9"></path><path d="M0 402.7L-41.5 364.6L0 430.8Z" fill="#e2c9b0" stroke="#e2c9b0"></path><path d="M0 237.5L-43.5 255.5L0 287.6Z" fill="#e0dbc2" stroke="#e0dbc2"></path><path d="M0 199.3L-43.5 255.5L0 237.5Z" fill="#e1d5bb" stroke="#e1d5bb"></path><path d="M0 161.2L-43.5 255.5L0 199.3Z" fill="#e4b7a7" stroke="#e4b7a7"></path><path d="M0 145.4L-43.5 255.5L0 161.2Z" fill="#e2c9b0" stroke="#e2c9b0"></path><path d="M-19.5 50.2L-43.5 255.5L0 145.4Z" fill="#e0e0c9" stroke="#e0e0c9"></path><path d="M865.9 491.8L910.9 431.9L851.9 449.7Z" fill="#e2c9b0" stroke="#e2c9b0"></path><path d="M950.9 171.5L888.9 201.3L960 199.4Z" fill="#e0e0c9" stroke="#e0e0c9"></path><path d="M908.5 140.1L922.5 101.3L878.9 153.4Z" fill="#e0dbc2" stroke="#e0dbc2"></path><path d="M73.6 0L27.5 -9.9L10.5 98.3Z" fill="#e0dbc2" stroke="#e0dbc2"></path><path d="M10.5 98.3L-19.5 50.2L0 145.4Z" fill="#e3aba6" stroke="#e3aba6"></path><path d="M0 -27.9L27.5 -9.9L73.6 0Z" fill="#e4bda9" stroke="#e4bda9"></path><path d="M0 -27.9L73.6 0L164.6 -13.9Z" fill="#e1cfb5" stroke="#e1cfb5"></path><path d="M-43.5 255.5L-41.5 364.6L0 287.6Z" fill="#e4b7a7" stroke="#e4b7a7"></path><path d="M0 521.9L56.5 532.8L58.6 498.8Z" fill="#e3aba6" stroke="#e3aba6"></path><path d="M960 199.4L888.9 201.3L911.5 284.4Z" fill="#e1cfb5" stroke="#e1cfb5"></path><path d="M960 199.4L911.5 284.4L968.5 286.5Z" fill="#e1cfb5" stroke="#e1cfb5"></path><path d="M27.5 -9.9L-19.5 50.2L10.5 98.3Z" fill="#e1cfb5" stroke="#e1cfb5"></path><path d="M960 322.5L911.5 284.4L917.5 339.7Z" fill="#e4bda9" stroke="#e4bda9"></path><path d="M960 55.2L897.5 0L887.4 60.1Z" fill="#e3aba6" stroke="#e3aba6"></path><path d="M879.4 15.2L897.5 0L851.9 0Z" fill="#e4b1a6" stroke="#e4b1a6"></path><path d="M851.9 0L897.5 0L657.9 -23.9Z" fill="#e4b7a7" stroke="#e4b7a7"></path><path d="M960 55.2L887.4 60.1L922.5 101.3Z" fill="#e1a5a7" stroke="#e1a5a7"></path><path d="M960 84.3L922.5 101.3L950.9 171.5Z" fill="#e1d5bb" stroke="#e1d5bb"></path><path d="M910.9 431.9L947.9 379.6L917.5 339.7Z" fill="#e0dbc2" stroke="#e0dbc2"></path><path d="M960 324.5L960 322.5L917.5 339.7Z" fill="#e4bda9" stroke="#e4bda9"></path><path d="M960 368.6L960 324.5L917.5 339.7Z" fill="#e4bda9" stroke="#e4bda9"></path><path d="M27.5 -9.9L0 0L-19.5 50.2Z" fill="#e4b1a6" stroke="#e4b1a6"></path><path d="M1000.5 450.8L968.5 286.5L960 324.5Z" fill="#e4b7a7" stroke="#e4b7a7"></path><path d="M960 324.5L968.5 286.5L960 322.5Z" fill="#e1d5bb" stroke="#e1d5bb"></path><path d="M960 322.5L968.5 286.5L911.5 284.4Z" fill="#e0e0c9" stroke="#e0e0c9"></path><path d="M0 521.9L58.6 498.8L0 430.8Z" fill="#e1d5bb" stroke="#e1d5bb"></path><path d="M56.5 532.8L23.1 549.9L107.1 540Z" fill="#e1cfb5" stroke="#e1cfb5"></path><path d="M107.1 540L23.1 549.9L118.6 540Z" fill="#e3aba6" stroke="#e3aba6"></path><path d="M960 391.9L960 368.6L947.9 379.6Z" fill="#e1a5a7" stroke="#e1a5a7"></path><path d="M947.9 379.6L960 368.6L917.5 339.7Z" fill="#e0dbc2" stroke="#e0dbc2"></path><path d="M960 391.9L947.9 379.6L960 406.7Z" fill="#e0e0c9" stroke="#e0e0c9"></path><path d="M-41.5 364.6L0 521.9L0 430.8Z" fill="#e3aba6" stroke="#e3aba6"></path><path d="M960 406.7L947.9 379.6L910.9 431.9Z" fill="#e0dbc2" stroke="#e0dbc2"></path><path d="M960 368.6L1000.5 450.8L960 324.5Z" fill="#e0e0c9" stroke="#e0e0c9"></path><path d="M0 521.9L6.5 540L23.1 549.9Z" fill="#e4bda9" stroke="#e4bda9"></path><path d="M361.2 -42.9L0 -27.9L164.6 -13.9Z" fill="#e4bda9" stroke="#e4bda9"></path><path d="M27.5 -9.9L0 -27.9L0 0Z" fill="#e4b1a6" stroke="#e4b1a6"></path><path d="M0 0L0 -27.9L-19.5 50.2Z" fill="#e1d5bb" stroke="#e1d5bb"></path><path d="M960 430.8L960 406.7L910.9 431.9Z" fill="#e3aba6" stroke="#e3aba6"></path><path d="M960 391.9L1000.5 450.8L960 368.6Z" fill="#e4b7a7" stroke="#e4b7a7"></path><path d="M960 430.8L910.9 431.9L938.5 498.9Z" fill="#e4bda9" stroke="#e4bda9"></path><path d="M-41.5 364.6L0 540L0 521.9Z" fill="#e1d5bb" stroke="#e1d5bb"></path><path d="M0 521.9L0 540L6.5 540Z" fill="#e3c3ac" stroke="#e3c3ac"></path><path d="M6.5 540L0 540L23.1 549.9Z" fill="#e2c9b0" stroke="#e2c9b0"></path><path d="M968.5 286.5L960 84.3L960 199.4Z" fill="#e4b1a6" stroke="#e4b1a6"></path><path d="M960 199.4L960 84.3L950.9 171.5Z" fill="#e4b7a7" stroke="#e4b7a7"></path><path d="M938.5 498.9L910.9 431.9L865.9 491.8Z" fill="#e2c9b0" stroke="#e2c9b0"></path><path d="M960 406.7L1000.5 450.8L960 391.9Z" fill="#e3c3ac" stroke="#e3c3ac"></path><path d="M960 84.3L960 55.2L922.5 101.3Z" fill="#e2c9b0" stroke="#e2c9b0"></path><path d="M1000.5 450.8L960 55.2L960 84.3Z" fill="#e1cfb5" stroke="#e1cfb5"></path><path d="M960 540L938.5 498.9L865.9 491.8Z" fill="#e1cfb5" stroke="#e1cfb5"></path><path d="M1000.5 450.8L960 14.1L960 55.2Z" fill="#e4b7a7" stroke="#e4b7a7"></path><path d="M960 55.2L960 14.1L897.5 0Z" fill="#e3c3ac" stroke="#e3c3ac"></path><path d="M1000.5 450.8L960 0L960 14.1Z" fill="#e0dbc2" stroke="#e0dbc2"></path><path d="M960 14.1L960 0L897.5 0Z" fill="#e4b7a7" stroke="#e4b7a7"></path><path d="M897.5 0L960 0L657.9 -23.9Z" fill="#e1a5a7" stroke="#e1a5a7"></path><path d="M938.5 498.9L1000.5 450.8L960 430.8Z" fill="#e2c9b0" stroke="#e2c9b0"></path><path d="M960 430.8L1000.5 450.8L960 406.7Z" fill="#e1cfb5" stroke="#e1cfb5"></path><path d="M968.5 286.5L1000.5 450.8L960 84.3Z" fill="#e0e0c9" stroke="#e0e0c9"></path><path d="M813.5 540L960 540L865.9 491.8Z" fill="#e2c9b0" stroke="#e2c9b0"></path><path d="M938.5 498.9L960 540L1000.5 450.8Z" fill="#e1a5a7" stroke="#e1a5a7"></path><path d="M557.3 581.9L960 540L813.5 540Z" fill="#e4b1a6" stroke="#e4b1a6"></path></g></svg>