<svg id="visual" viewBox="0 0 960 100" width="960" height="100" xmlns="http://www.w3.org/2000/svg" xmlns:xlink="http://www.w3.org/1999/xlink" version="1.1"><path d="M0 12L8.5 12.8C17 13.7 34 15.3 50.8 15.3C67.7 15.3 84.3 13.7 101.2 15.3C118 17 135 22 151.8 22C168.7 22 185.3 17 202.2 15.7C219 14.3 236 16.7 252.8 19.8C269.7 23 286.3 27 303.2 27.3C320 27.7 337 24.3 353.8 24C370.7 23.7 387.3 26.3 404.2 28.2C421 30 438 31 454.8 31.8C471.7 32.7 488.3 33.3 505.2 29.8C522 26.3 539 18.7 555.8 15.2C572.7 11.7 589.3 12.3 606.2 14.7C623 17 640 21 656.8 22.5C673.7 24 690.3 23 707.2 21.2C724 19.3 741 16.7 757.8 18.3C774.7 20 791.3 26 808.2 29.2C825 32.3 842 32.7 858.8 30.8C875.7 29 892.3 25 909.2 23.5C926 22 943 23 951.5 23.5L960 24L960 101L951.5 101C943 101 926 101 909.2 101C892.3 101 875.7 101 858.8 101C842 101 825 101 808.2 101C791.3 101 774.7 101 757.8 101C741 101 724 101 707.2 101C690.3 101 673.7 101 656.8 101C640 101 623 101 606.2 101C589.3 101 572.7 101 555.8 101C539 101 522 101 505.2 101C488.3 101 471.7 101 454.8 101C438 101 421 101 404.2 101C387.3 101 370.7 101 353.8 101C337 101 320 101 303.2 101C286.3 101 269.7 101 252.8 101C236 101 219 101 202.2 101C185.3 101 168.7 101 151.8 101C135 101 118 101 101.2 101C84.3 101 67.7 101 50.8 101C34 101 17 101 8.5 101L0 101Z" fill="#162234"></path><path d="M0 46L8.5 44.8C17 43.7 34 41.3 50.8 38.2C67.7 35 84.3 31 101.2 30.8C118 30.7 135 34.3 151.8 37.2C168.7 40 185.3 42 202.2 43C219 44 236 44 252.8 41.8C269.7 39.7 286.3 35.3 303.2 36C320 36.7 337 42.3 353.8 43.8C370.7 45.3 387.3 42.7 404.2 41.8C421 41 438 42 454.8 43.2C471.7 44.3 488.3 45.7 505.2 43.2C522 40.7 539 34.3 555.8 31.8C572.7 29.3 589.3 30.7 606.2 31.2C623 31.7 640 31.3 656.8 33.3C673.7 35.3 690.3 39.7 707.2 42.2C724 44.7 741 45.3 757.8 43.8C774.7 42.3 791.3 38.7 808.2 37.8C825 37 842 39 858.8 38.7C875.7 38.3 892.3 35.7 909.2 33.3C926 31 943 29 951.5 28L960 27L960 101L951.5 101C943 101 926 101 909.2 101C892.3 101 875.7 101 858.8 101C842 101 825 101 808.2 101C791.3 101 774.7 101 757.8 101C741 101 724 101 707.2 101C690.3 101 673.7 101 656.8 101C640 101 623 101 606.2 101C589.3 101 572.7 101 555.8 101C539 101 522 101 505.2 101C488.3 101 471.7 101 454.8 101C438 101 421 101 404.2 101C387.3 101 370.7 101 353.8 101C337 101 320 101 303.2 101C286.3 101 269.7 101 252.8 101C236 101 219 101 202.2 101C185.3 101 168.7 101 151.8 101C135 101 118 101 101.2 101C84.3 101 67.7 101 50.8 101C34 101 17 101 8.5 101L0 101Z" fill="#2f2e55"></path><path d="M0 51L8.5 50.5C17 50 34 49 50.8 49C67.7 49 84.3 50 101.2 51C118 52 135 53 151.8 53.2C168.7 53.3 185.3 52.7 202.2 51.2C219 49.7 236 47.3 252.8 48C269.7 48.7 286.3 52.3 303.2 54.7C320 57 337 58 353.8 56.3C370.7 54.7 387.3 50.3 404.2 50.8C421 51.3 438 56.7 454.8 56.7C471.7 56.7 488.3 51.3 505.2 48.2C522 45 539 44 555.8 44C572.7 44 589.3 45 606.2 47C623 49 640 52 656.8 51.8C673.7 51.7 690.3 48.3 707.2 47.2C724 46 741 47 757.8 48.3C774.7 49.7 791.3 51.3 808.2 52.7C825 54 842 55 858.8 55C875.7 55 892.3 54 909.2 52.7C926 51.3 943 49.7 951.5 48.8L960 48L960 101L951.5 101C943 101 926 101 909.2 101C892.3 101 875.7 101 858.8 101C842 101 825 101 808.2 101C791.3 101 774.7 101 757.8 101C741 101 724 101 707.2 101C690.3 101 673.7 101 656.8 101C640 101 623 101 606.2 101C589.3 101 572.7 101 555.8 101C539 101 522 101 505.2 101C488.3 101 471.7 101 454.8 101C438 101 421 101 404.2 101C387.3 101 370.7 101 353.8 101C337 101 320 101 303.2 101C286.3 101 269.7 101 252.8 101C236 101 219 101 202.2 101C185.3 101 168.7 101 151.8 101C135 101 118 101 101.2 101C84.3 101 67.7 101 50.8 101C34 101 17 101 8.5 101L0 101Z" fill="#5c336d"></path><path d="M0 63L8.5 64.5C17 66 34 69 50.8 69.3C67.7 69.7 84.3 67.3 101.2 65.7C118 64 135 63 151.8 62.8C168.7 62.7 185.3 63.3 202.2 64.7C219 66 236 68 252.8 69.3C269.7 70.7 286.3 71.3 303.2 72.3C320 73.3 337 74.7 353.8 74.3C370.7 74 387.3 72 404.2 70.7C421 69.3 438 68.7 454.8 68.8C471.7 69 488.3 70 505.2 70C522 70 539 69 555.8 67.2C572.7 65.3 589.3 62.7 606.2 62.2C623 61.7 640 63.3 656.8 65C673.7 66.7 690.3 68.3 707.2 68.2C724 68 741 66 757.8 66.5C774.7 67 791.3 70 808.2 71.2C825 72.3 842 71.7 858.8 70.2C875.7 68.7 892.3 66.3 909.2 66.8C926 67.3 943 70.7 951.5 72.3L960 74L960 101L951.5 101C943 101 926 101 909.2 101C892.3 101 875.7 101 858.8 101C842 101 825 101 808.2 101C791.3 101 774.7 101 757.8 101C741 101 724 101 707.2 101C690.3 101 673.7 101 656.8 101C640 101 623 101 606.2 101C589.3 101 572.7 101 555.8 101C539 101 522 101 505.2 101C488.3 101 471.7 101 454.8 101C438 101 421 101 404.2 101C387.3 101 370.7 101 353.8 101C337 101 320 101 303.2 101C286.3 101 269.7 101 252.8 101C236 101 219 101 202.2 101C185.3 101 168.7 101 151.8 101C135 101 118 101 101.2 101C84.3 101 67.7 101 50.8 101C34 101 17 101 8.5 101L0 101Z" fill="#922e74"></path><path d="M0 76L8.5 77.8C17 79.7 34 83.3 50.8 83.8C67.7 84.3 84.3 81.7 101.2 80C118 78.3 135 77.7 151.8 79C168.7 80.3 185.3 83.7 202.2 84.2C219 84.7 236 82.3 252.8 81.8C269.7 81.3 286.3 82.7 303.2 83.8C320 85 337 86 353.8 85.5C370.7 85 387.3 83 404.2 81.2C421 79.3 438 77.7 454.8 78C471.7 78.3 488.3 80.7 505.2 83C522 85.3 539 87.7 555.8 89C572.7 90.3 589.3 90.7 606.2 88.5C623 86.3 640 81.7 656.8 79.5C673.7 77.3 690.3 77.7 707.2 79.7C724 81.7 741 85.3 757.8 84.8C774.7 84.3 791.3 79.7 808.2 79.8C825 80 842 85 858.8 87.3C875.7 89.7 892.3 89.3 909.2 87.3C926 85.3 943 81.7 951.5 79.8L960 78L960 101L951.5 101C943 101 926 101 909.2 101C892.3 101 875.7 101 858.8 101C842 101 825 101 808.2 101C791.3 101 774.7 101 757.8 101C741 101 724 101 707.2 101C690.3 101 673.7 101 656.8 101C640 101 623 101 606.2 101C589.3 101 572.7 101 555.8 101C539 101 522 101 505.2 101C488.3 101 471.7 101 454.8 101C438 101 421 101 404.2 101C387.3 101 370.7 101 353.8 101C337 101 320 101 303.2 101C286.3 101 269.7 101 252.8 101C236 101 219 101 202.2 101C185.3 101 168.7 101 151.8 101C135 101 118 101 101.2 101C84.3 101 67.7 101 50.8 101C34 101 17 101 8.5 101L0 101Z" fill="#c62368"></path></svg>