<svg id="visual" viewBox="0 0 960 100" width="960" height="100" xmlns="http://www.w3.org/2000/svg" xmlns:xlink="http://www.w3.org/1999/xlink" version="1.1"><path d="M0 59L16 57.7C32 56.3 64 53.7 96 52.7C128 51.7 160 52.3 192 53C224 53.7 256 54.3 288 55.8C320 57.3 352 59.7 384 59.7C416 59.7 448 57.3 480 57.3C512 57.3 544 59.7 576 59.8C608 60 640 58 672 56.2C704 54.3 736 52.7 768 52C800 51.3 832 51.7 864 53.5C896 55.3 928 58.7 944 60.3L960 62L960 101L944 101C928 101 896 101 864 101C832 101 800 101 768 101C736 101 704 101 672 101C640 101 608 101 576 101C544 101 512 101 480 101C448 101 416 101 384 101C352 101 320 101 288 101C256 101 224 101 192 101C160 101 128 101 96 101C64 101 32 101 16 101L0 101Z" fill="#e0e0c9"></path><path d="M0 57L16 58.2C32 59.3 64 61.7 96 61.7C128 61.7 160 59.3 192 59.5C224 59.7 256 62.3 288 62.5C320 62.7 352 60.3 384 60.3C416 60.3 448 62.7 480 62.7C512 62.7 544 60.3 576 59C608 57.7 640 57.3 672 57.2C704 57 736 57 768 57C800 57 832 57 864 58.5C896 60 928 63 944 64.5L960 66L960 101L944 101C928 101 896 101 864 101C832 101 800 101 768 101C736 101 704 101 672 101C640 101 608 101 576 101C544 101 512 101 480 101C448 101 416 101 384 101C352 101 320 101 288 101C256 101 224 101 192 101C160 101 128 101 96 101C64 101 32 101 16 101L0 101Z" fill="#b7c4b0"></path><path d="M0 71L16 70.2C32 69.3 64 67.7 96 67.7C128 67.7 160 69.3 192 70.2C224 71 256 71 288 70.7C320 70.3 352 69.7 384 68.5C416 67.3 448 65.7 480 65.3C512 65 544 66 576 65.7C608 65.3 640 63.7 672 62.8C704 62 736 62 768 62.8C800 63.7 832 65.3 864 66.7C896 68 928 69 944 69.5L960 70L960 101L944 101C928 101 896 101 864 101C832 101 800 101 768 101C736 101 704 101 672 101C640 101 608 101 576 101C544 101 512 101 480 101C448 101 416 101 384 101C352 101 320 101 288 101C256 101 224 101 192 101C160 101 128 101 96 101C64 101 32 101 16 101L0 101Z" fill="#91a99a"></path><path d="M0 77L16 75.3C32 73.7 64 70.3 96 69C128 67.7 160 68.3 192 69C224 69.7 256 70.3 288 70.8C320 71.3 352 71.7 384 72.2C416 72.7 448 73.3 480 73.2C512 73 544 72 576 70.8C608 69.7 640 68.3 672 68.3C704 68.3 736 69.7 768 70.7C800 71.7 832 72.3 864 73.2C896 74 928 75 944 75.5L960 76L960 101L944 101C928 101 896 101 864 101C832 101 800 101 768 101C736 101 704 101 672 101C640 101 608 101 576 101C544 101 512 101 480 101C448 101 416 101 384 101C352 101 320 101 288 101C256 101 224 101 192 101C160 101 128 101 96 101C64 101 32 101 16 101L0 101Z" fill="#6e8d86"></path><path d="M0 76L16 77C32 78 64 80 96 81C128 82 160 82 192 82C224 82 256 82 288 80.5C320 79 352 76 384 75C416 74 448 75 480 75.2C512 75.3 544 74.7 576 75C608 75.3 640 76.7 672 77.8C704 79 736 80 768 79.8C800 79.7 832 78.3 864 77.3C896 76.3 928 75.7 944 75.3L960 75L960 101L944 101C928 101 896 101 864 101C832 101 800 101 768 101C736 101 704 101 672 101C640 101 608 101 576 101C544 101 512 101 480 101C448 101 416 101 384 101C352 101 320 101 288 101C256 101 224 101 192 101C160 101 128 101 96 101C64 101 32 101 16 101L0 101Z" fill="#4f7174"></path><path d="M0 88L16 87C32 86 64 84 96 82.8C128 81.7 160 81.3 192 82.2C224 83 256 85 288 85.7C320 86.3 352 85.7 384 84.7C416 83.7 448 82.3 480 82.2C512 82 544 83 576 83.2C608 83.3 640 82.7 672 83.2C704 83.7 736 85.3 768 84.8C800 84.3 832 81.7 864 80.3C896 79 928 79 944 79L960 79L960 101L944 101C928 101 896 101 864 101C832 101 800 101 768 101C736 101 704 101 672 101C640 101 608 101 576 101C544 101 512 101 480 101C448 101 416 101 384 101C352 101 320 101 288 101C256 101 224 101 192 101C160 101 128 101 96 101C64 101 32 101 16 101L0 101Z" fill="#365660"></path><path d="M0 89L16 89.2C32 89.3 64 89.7 96 89.5C128 89.3 160 88.7 192 87.7C224 86.7 256 85.3 288 85.2C320 85 352 86 384 86.2C416 86.3 448 85.7 480 85.8C512 86 544 87 576 87.7C608 88.3 640 88.7 672 88.8C704 89 736 89 768 88.7C800 88.3 832 87.7 864 87C896 86.3 928 85.7 944 85.3L960 85L960 101L944 101C928 101 896 101 864 101C832 101 800 101 768 101C736 101 704 101 672 101C640 101 608 101 576 101C544 101 512 101 480 101C448 101 416 101 384 101C352 101 320 101 288 101C256 101 224 101 192 101C160 101 128 101 96 101C64 101 32 101 16 101L0 101Z" fill="#233b4b"></path><path d="M0 95L16 94.3C32 93.7 64 92.3 96 92.7C128 93 160 95 192 96C224 97 256 97 288 96.2C320 95.3 352 93.7 384 92.8C416 92 448 92 480 91.7C512 91.3 544 90.7 576 90.2C608 89.7 640 89.3 672 90C704 90.7 736 92.3 768 92.7C800 93 832 92 864 92C896 92 928 93 944 93.5L960 94L960 101L944 101C928 101 896 101 864 101C832 101 800 101 768 101C736 101 704 101 672 101C640 101 608 101 576 101C544 101 512 101 480 101C448 101 416 101 384 101C352 101 320 101 288 101C256 101 224 101 192 101C160 101 128 101 96 101C64 101 32 101 16 101L0 101Z" fill="#162234"></path></svg>