<svg id="visual" viewBox="0 0 960 100" width="960" height="100" xmlns="http://www.w3.org/2000/svg" xmlns:xlink="http://www.w3.org/1999/xlink" version="1.1"><path d="M0 60L16 59.5C32 59 64 58 96 57.5C128 57 160 57 192 56.8C224 56.7 256 56.3 288 56.7C320 57 352 58 384 58.7C416 59.3 448 59.7 480 60.2C512 60.7 544 61.3 576 61.3C608 61.3 640 60.7 672 60C704 59.3 736 58.7 768 58.7C800 58.7 832 59.3 864 59.5C896 59.7 928 59.3 944 59.2L960 59L960 101L944 101C928 101 896 101 864 101C832 101 800 101 768 101C736 101 704 101 672 101C640 101 608 101 576 101C544 101 512 101 480 101C448 101 416 101 384 101C352 101 320 101 288 101C256 101 224 101 192 101C160 101 128 101 96 101C64 101 32 101 16 101L0 101Z" fill="#e0e0c9"></path><path d="M0 61L16 61.2C32 61.3 64 61.7 96 61C128 60.3 160 58.7 192 58C224 57.3 256 57.7 288 58.8C320 60 352 62 384 63.2C416 64.3 448 64.7 480 64.2C512 63.7 544 62.3 576 61.8C608 61.3 640 61.7 672 62.5C704 63.3 736 64.7 768 64C800 63.3 832 60.7 864 60.2C896 59.7 928 61.3 944 62.2L960 63L960 101L944 101C928 101 896 101 864 101C832 101 800 101 768 101C736 101 704 101 672 101C640 101 608 101 576 101C544 101 512 101 480 101C448 101 416 101 384 101C352 101 320 101 288 101C256 101 224 101 192 101C160 101 128 101 96 101C64 101 32 101 16 101L0 101Z" fill="#b7c4b0"></path><path d="M0 63L16 63C32 63 64 63 96 64.2C128 65.3 160 67.7 192 68.3C224 69 256 68 288 68.3C320 68.7 352 70.3 384 70.8C416 71.3 448 70.7 480 70C512 69.3 544 68.7 576 67.8C608 67 640 66 672 66.2C704 66.3 736 67.7 768 68.8C800 70 832 71 864 70.3C896 69.7 928 67.3 944 66.2L960 65L960 101L944 101C928 101 896 101 864 101C832 101 800 101 768 101C736 101 704 101 672 101C640 101 608 101 576 101C544 101 512 101 480 101C448 101 416 101 384 101C352 101 320 101 288 101C256 101 224 101 192 101C160 101 128 101 96 101C64 101 32 101 16 101L0 101Z" fill="#91a99a"></path><path d="M0 70L16 70C32 70 64 70 96 69.5C128 69 160 68 192 68.8C224 69.7 256 72.3 288 74C320 75.7 352 76.3 384 76C416 75.7 448 74.3 480 73.2C512 72 544 71 576 70.2C608 69.3 640 68.7 672 68.8C704 69 736 70 768 70.8C800 71.7 832 72.3 864 72C896 71.7 928 70.3 944 69.7L960 69L960 101L944 101C928 101 896 101 864 101C832 101 800 101 768 101C736 101 704 101 672 101C640 101 608 101 576 101C544 101 512 101 480 101C448 101 416 101 384 101C352 101 320 101 288 101C256 101 224 101 192 101C160 101 128 101 96 101C64 101 32 101 16 101L0 101Z" fill="#6e8d86"></path><path d="M0 78L16 78.2C32 78.3 64 78.7 96 79.3C128 80 160 81 192 81C224 81 256 80 288 78.7C320 77.3 352 75.7 384 74.7C416 73.7 448 73.3 480 74.7C512 76 544 79 576 80.5C608 82 640 82 672 80.5C704 79 736 76 768 74.5C800 73 832 73 864 74.7C896 76.3 928 79.7 944 81.3L960 83L960 101L944 101C928 101 896 101 864 101C832 101 800 101 768 101C736 101 704 101 672 101C640 101 608 101 576 101C544 101 512 101 480 101C448 101 416 101 384 101C352 101 320 101 288 101C256 101 224 101 192 101C160 101 128 101 96 101C64 101 32 101 16 101L0 101Z" fill="#4f7174"></path><path d="M0 80L16 80.3C32 80.7 64 81.3 96 81.2C128 81 160 80 192 79.7C224 79.3 256 79.7 288 80.8C320 82 352 84 384 84.5C416 85 448 84 480 83.2C512 82.3 544 81.7 576 81.2C608 80.7 640 80.3 672 80.5C704 80.7 736 81.3 768 81.2C800 81 832 80 864 80.2C896 80.3 928 81.7 944 82.3L960 83L960 101L944 101C928 101 896 101 864 101C832 101 800 101 768 101C736 101 704 101 672 101C640 101 608 101 576 101C544 101 512 101 480 101C448 101 416 101 384 101C352 101 320 101 288 101C256 101 224 101 192 101C160 101 128 101 96 101C64 101 32 101 16 101L0 101Z" fill="#365660"></path><path d="M0 86L16 86C32 86 64 86 96 86.7C128 87.3 160 88.7 192 89.7C224 90.7 256 91.3 288 91.8C320 92.3 352 92.7 384 92C416 91.3 448 89.7 480 88.2C512 86.7 544 85.3 576 85.3C608 85.3 640 86.7 672 87.3C704 88 736 88 768 88C800 88 832 88 864 88C896 88 928 88 944 88L960 88L960 101L944 101C928 101 896 101 864 101C832 101 800 101 768 101C736 101 704 101 672 101C640 101 608 101 576 101C544 101 512 101 480 101C448 101 416 101 384 101C352 101 320 101 288 101C256 101 224 101 192 101C160 101 128 101 96 101C64 101 32 101 16 101L0 101Z" fill="#233b4b"></path><path d="M0 94L16 94.2C32 94.3 64 94.7 96 95C128 95.3 160 95.7 192 94.8C224 94 256 92 288 90.8C320 89.7 352 89.3 384 89.7C416 90 448 91 480 92C512 93 544 94 576 94.8C608 95.7 640 96.3 672 95.3C704 94.3 736 91.7 768 90.5C800 89.3 832 89.7 864 90C896 90.3 928 90.7 944 90.8L960 91L960 101L944 101C928 101 896 101 864 101C832 101 800 101 768 101C736 101 704 101 672 101C640 101 608 101 576 101C544 101 512 101 480 101C448 101 416 101 384 101C352 101 320 101 288 101C256 101 224 101 192 101C160 101 128 101 96 101C64 101 32 101 16 101L0 101Z" fill="#162234"></path></svg>