<svg id="visual" viewBox="0 0 960 100" width="960" height="100" xmlns="http://www.w3.org/2000/svg" xmlns:xlink="http://www.w3.org/1999/xlink" version="1.1"><path d="M0 61L16 60.5C32 60 64 59 96 57.3C128 55.7 160 53.3 192 53C224 52.7 256 54.3 288 56.2C320 58 352 60 384 59.3C416 58.7 448 55.3 480 54.5C512 53.7 544 55.3 576 55.8C608 56.3 640 55.7 672 55.8C704 56 736 57 768 57.2C800 57.3 832 56.7 864 57.2C896 57.7 928 59.3 944 60.2L960 61L960 101L944 101C928 101 896 101 864 101C832 101 800 101 768 101C736 101 704 101 672 101C640 101 608 101 576 101C544 101 512 101 480 101C448 101 416 101 384 101C352 101 320 101 288 101C256 101 224 101 192 101C160 101 128 101 96 101C64 101 32 101 16 101L0 101Z" fill="#e0e0c9"></path><path d="M0 65L16 64.3C32 63.7 64 62.3 96 61C128 59.7 160 58.3 192 58C224 57.7 256 58.3 288 58.7C320 59 352 59 384 59.2C416 59.3 448 59.7 480 60C512 60.3 544 60.7 576 60.3C608 60 640 59 672 59.2C704 59.3 736 60.7 768 61.5C800 62.3 832 62.7 864 63.2C896 63.7 928 64.3 944 64.7L960 65L960 101L944 101C928 101 896 101 864 101C832 101 800 101 768 101C736 101 704 101 672 101C640 101 608 101 576 101C544 101 512 101 480 101C448 101 416 101 384 101C352 101 320 101 288 101C256 101 224 101 192 101C160 101 128 101 96 101C64 101 32 101 16 101L0 101Z" fill="#b7c4b0"></path><path d="M0 71L16 69.8C32 68.7 64 66.3 96 66.2C128 66 160 68 192 68.7C224 69.3 256 68.7 288 68.2C320 67.7 352 67.3 384 67.3C416 67.3 448 67.7 480 67.3C512 67 544 66 576 65.8C608 65.7 640 66.3 672 67.2C704 68 736 69 768 69C800 69 832 68 864 68.3C896 68.7 928 70.3 944 71.2L960 72L960 101L944 101C928 101 896 101 864 101C832 101 800 101 768 101C736 101 704 101 672 101C640 101 608 101 576 101C544 101 512 101 480 101C448 101 416 101 384 101C352 101 320 101 288 101C256 101 224 101 192 101C160 101 128 101 96 101C64 101 32 101 16 101L0 101Z" fill="#91a99a"></path><path d="M0 70L16 70.5C32 71 64 72 96 71.7C128 71.3 160 69.7 192 69C224 68.3 256 68.7 288 69.8C320 71 352 73 384 74C416 75 448 75 480 73.8C512 72.7 544 70.3 576 69.2C608 68 640 68 672 69.5C704 71 736 74 768 74.8C800 75.7 832 74.3 864 74.3C896 74.3 928 75.7 944 76.3L960 77L960 101L944 101C928 101 896 101 864 101C832 101 800 101 768 101C736 101 704 101 672 101C640 101 608 101 576 101C544 101 512 101 480 101C448 101 416 101 384 101C352 101 320 101 288 101C256 101 224 101 192 101C160 101 128 101 96 101C64 101 32 101 16 101L0 101Z" fill="#6e8d86"></path><path d="M0 80L16 79.7C32 79.3 64 78.7 96 78.5C128 78.3 160 78.7 192 78.5C224 78.3 256 77.7 288 78.2C320 78.7 352 80.3 384 80C416 79.7 448 77.3 480 76.8C512 76.3 544 77.7 576 78.3C608 79 640 79 672 78.5C704 78 736 77 768 76.7C800 76.3 832 76.7 864 77.3C896 78 928 79 944 79.5L960 80L960 101L944 101C928 101 896 101 864 101C832 101 800 101 768 101C736 101 704 101 672 101C640 101 608 101 576 101C544 101 512 101 480 101C448 101 416 101 384 101C352 101 320 101 288 101C256 101 224 101 192 101C160 101 128 101 96 101C64 101 32 101 16 101L0 101Z" fill="#4f7174"></path><path d="M0 86L16 84.8C32 83.7 64 81.3 96 81.7C128 82 160 85 192 85.7C224 86.3 256 84.7 288 84C320 83.3 352 83.7 384 84C416 84.3 448 84.7 480 84.7C512 84.7 544 84.3 576 83.8C608 83.3 640 82.7 672 83C704 83.3 736 84.7 768 85.5C800 86.3 832 86.7 864 85.8C896 85 928 83 944 82L960 81L960 101L944 101C928 101 896 101 864 101C832 101 800 101 768 101C736 101 704 101 672 101C640 101 608 101 576 101C544 101 512 101 480 101C448 101 416 101 384 101C352 101 320 101 288 101C256 101 224 101 192 101C160 101 128 101 96 101C64 101 32 101 16 101L0 101Z" fill="#365660"></path><path d="M0 92L16 91.8C32 91.7 64 91.3 96 91.5C128 91.7 160 92.3 192 91.3C224 90.3 256 87.7 288 86.2C320 84.7 352 84.3 384 84.3C416 84.3 448 84.7 480 85.8C512 87 544 89 576 90C608 91 640 91 672 91C704 91 736 91 768 91C800 91 832 91 864 91.2C896 91.3 928 91.7 944 91.8L960 92L960 101L944 101C928 101 896 101 864 101C832 101 800 101 768 101C736 101 704 101 672 101C640 101 608 101 576 101C544 101 512 101 480 101C448 101 416 101 384 101C352 101 320 101 288 101C256 101 224 101 192 101C160 101 128 101 96 101C64 101 32 101 16 101L0 101Z" fill="#233b4b"></path><path d="M0 92L16 92.3C32 92.7 64 93.3 96 94.2C128 95 160 96 192 96C224 96 256 95 288 94.8C320 94.7 352 95.3 384 95C416 94.7 448 93.3 480 93.3C512 93.3 544 94.7 576 95C608 95.3 640 94.7 672 94C704 93.3 736 92.7 768 93.3C800 94 832 96 864 96.5C896 97 928 96 944 95.5L960 95L960 101L944 101C928 101 896 101 864 101C832 101 800 101 768 101C736 101 704 101 672 101C640 101 608 101 576 101C544 101 512 101 480 101C448 101 416 101 384 101C352 101 320 101 288 101C256 101 224 101 192 101C160 101 128 101 96 101C64 101 32 101 16 101L0 101Z" fill="#162234"></path></svg>