<svg id="visual" viewBox="0 0 960 100" width="960" height="100" xmlns="http://www.w3.org/2000/svg" xmlns:xlink="http://www.w3.org/1999/xlink" version="1.1"><path d="M0 54L16 54.7C32 55.3 64 56.7 96 57C128 57.3 160 56.7 192 57C224 57.3 256 58.7 288 59.3C320 60 352 60 384 58.7C416 57.3 448 54.7 480 54.3C512 54 544 56 576 56.7C608 57.3 640 56.7 672 55.7C704 54.7 736 53.3 768 52.7C800 52 832 52 864 52.5C896 53 928 54 944 54.5L960 55L960 101L944 101C928 101 896 101 864 101C832 101 800 101 768 101C736 101 704 101 672 101C640 101 608 101 576 101C544 101 512 101 480 101C448 101 416 101 384 101C352 101 320 101 288 101C256 101 224 101 192 101C160 101 128 101 96 101C64 101 32 101 16 101L0 101Z" fill="#e0e0c9"></path><path d="M0 66L16 64.5C32 63 64 60 96 59.3C128 58.7 160 60.3 192 61C224 61.7 256 61.3 288 62C320 62.7 352 64.3 384 63.8C416 63.3 448 60.7 480 59.8C512 59 544 60 576 60.8C608 61.7 640 62.3 672 62.8C704 63.3 736 63.7 768 62.7C800 61.7 832 59.3 864 59C896 58.7 928 60.3 944 61.2L960 62L960 101L944 101C928 101 896 101 864 101C832 101 800 101 768 101C736 101 704 101 672 101C640 101 608 101 576 101C544 101 512 101 480 101C448 101 416 101 384 101C352 101 320 101 288 101C256 101 224 101 192 101C160 101 128 101 96 101C64 101 32 101 16 101L0 101Z" fill="#b7c4b0"></path><path d="M0 71L16 70.3C32 69.7 64 68.3 96 67.3C128 66.3 160 65.7 192 65.3C224 65 256 65 288 65.3C320 65.7 352 66.3 384 67.2C416 68 448 69 480 68.7C512 68.3 544 66.7 576 65.7C608 64.7 640 64.3 672 65.5C704 66.7 736 69.3 768 69.3C800 69.3 832 66.7 864 66.7C896 66.7 928 69.3 944 70.7L960 72L960 101L944 101C928 101 896 101 864 101C832 101 800 101 768 101C736 101 704 101 672 101C640 101 608 101 576 101C544 101 512 101 480 101C448 101 416 101 384 101C352 101 320 101 288 101C256 101 224 101 192 101C160 101 128 101 96 101C64 101 32 101 16 101L0 101Z" fill="#91a99a"></path><path d="M0 73L16 72.2C32 71.3 64 69.7 96 69.8C128 70 160 72 192 72.2C224 72.3 256 70.7 288 70.2C320 69.7 352 70.3 384 71.2C416 72 448 73 480 73.5C512 74 544 74 576 74.3C608 74.7 640 75.3 672 75C704 74.7 736 73.3 768 72.8C800 72.3 832 72.7 864 73.3C896 74 928 75 944 75.5L960 76L960 101L944 101C928 101 896 101 864 101C832 101 800 101 768 101C736 101 704 101 672 101C640 101 608 101 576 101C544 101 512 101 480 101C448 101 416 101 384 101C352 101 320 101 288 101C256 101 224 101 192 101C160 101 128 101 96 101C64 101 32 101 16 101L0 101Z" fill="#6e8d86"></path><path d="M0 79L16 78.2C32 77.3 64 75.7 96 75.8C128 76 160 78 192 79C224 80 256 80 288 79.8C320 79.7 352 79.3 384 78.3C416 77.3 448 75.7 480 74.7C512 73.7 544 73.3 576 74.7C608 76 640 79 672 80C704 81 736 80 768 78.8C800 77.7 832 76.3 864 76.2C896 76 928 77 944 77.5L960 78L960 101L944 101C928 101 896 101 864 101C832 101 800 101 768 101C736 101 704 101 672 101C640 101 608 101 576 101C544 101 512 101 480 101C448 101 416 101 384 101C352 101 320 101 288 101C256 101 224 101 192 101C160 101 128 101 96 101C64 101 32 101 16 101L0 101Z" fill="#4f7174"></path><path d="M0 82L16 81.8C32 81.7 64 81.3 96 82.2C128 83 160 85 192 85.7C224 86.3 256 85.7 288 84.5C320 83.3 352 81.7 384 81.8C416 82 448 84 480 85.2C512 86.3 544 86.7 576 85.7C608 84.7 640 82.3 672 81.8C704 81.3 736 82.7 768 82.8C800 83 832 82 864 82C896 82 928 83 944 83.5L960 84L960 101L944 101C928 101 896 101 864 101C832 101 800 101 768 101C736 101 704 101 672 101C640 101 608 101 576 101C544 101 512 101 480 101C448 101 416 101 384 101C352 101 320 101 288 101C256 101 224 101 192 101C160 101 128 101 96 101C64 101 32 101 16 101L0 101Z" fill="#365660"></path><path d="M0 91L16 89.8C32 88.7 64 86.3 96 85.3C128 84.3 160 84.7 192 84.7C224 84.7 256 84.3 288 84.2C320 84 352 84 384 84.3C416 84.7 448 85.3 480 85.5C512 85.7 544 85.3 576 85.8C608 86.3 640 87.7 672 88.8C704 90 736 91 768 90.2C800 89.3 832 86.7 864 85.5C896 84.3 928 84.7 944 84.8L960 85L960 101L944 101C928 101 896 101 864 101C832 101 800 101 768 101C736 101 704 101 672 101C640 101 608 101 576 101C544 101 512 101 480 101C448 101 416 101 384 101C352 101 320 101 288 101C256 101 224 101 192 101C160 101 128 101 96 101C64 101 32 101 16 101L0 101Z" fill="#233b4b"></path><path d="M0 91L16 92C32 93 64 95 96 95C128 95 160 93 192 91.7C224 90.3 256 89.7 288 89.7C320 89.7 352 90.3 384 90.7C416 91 448 91 480 91.5C512 92 544 93 576 94C608 95 640 96 672 96.2C704 96.3 736 95.7 768 95.2C800 94.7 832 94.3 864 93.5C896 92.7 928 91.3 944 90.7L960 90L960 101L944 101C928 101 896 101 864 101C832 101 800 101 768 101C736 101 704 101 672 101C640 101 608 101 576 101C544 101 512 101 480 101C448 101 416 101 384 101C352 101 320 101 288 101C256 101 224 101 192 101C160 101 128 101 96 101C64 101 32 101 16 101L0 101Z" fill="#162234"></path></svg>